<?xml version="1.0" encoding="UTF-8"?>
<svg version="1.1" xmlns="http://www.w3.org/2000/svg" width="621" height="621">
<path d="M0 0 C6.0747342 3.41400062 10.78128295 8.85411873 12.875 15.5 C13.17094844 18.56039836 13.16034761 21.60824229 13.1534729 24.68110657 C13.1621615 26.071839 13.1621615 26.071839 13.17102563 27.49066705 C13.18803523 30.59838681 13.19090299 33.70595815 13.19384766 36.8137207 C13.20314516 39.04103459 13.21331356 41.26834499 13.22428894 43.49565125 C13.25162299 49.54474161 13.26674849 55.59380864 13.27971697 61.64294457 C13.29533257 67.96374712 13.3221278 74.2845019 13.3477478 80.60527039 C13.38924225 91.21510547 13.42382875 101.82494052 13.453125 112.43481445 C13.48331701 123.36224239 13.51767026 134.2896442 13.55761719 145.21704102 C13.56007874 145.8907884 13.56254028 146.56453578 13.56507643 147.25869975 C13.57745115 150.63874694 13.58990766 154.01879381 13.60240483 157.39884055 C13.70594901 185.43252402 13.79501286 213.46624016 13.875 241.5 C14.74189453 240.62786865 15.60878906 239.7557373 16.50195312 238.85717773 C19.74966792 235.59122598 23.00080327 232.32869701 26.25292969 229.06713867 C27.65424133 227.66082925 29.05465036 226.25361978 30.45410156 224.84545898 C32.47739038 222.80990344 34.50401128 220.77771469 36.53125 218.74609375 C37.1461731 218.12600937 37.76109619 217.50592499 38.39465332 216.86705017 C42.16791476 213.09331375 46.06128433 209.51784615 50.10966492 206.04048157 C52.58071616 203.88417202 54.88526247 201.58446169 57.1875 199.25 C57.64552002 198.78819336 58.10354004 198.32638672 58.57543945 197.85058594 C60.01116175 196.40287278 61.44352432 194.95191143 62.875 193.5 C68.41400106 187.88192414 73.94961907 182.33516546 79.94921875 177.203125 C83.59541428 173.97849771 86.96579735 170.47130106 90.375 167 C94.40382861 162.89778653 98.4141413 158.83823878 102.78125 155.09375 C107.74183055 150.82579721 112.28524136 146.15930044 116.875 141.5 C122.0668808 136.22945434 127.26582714 131.08570143 132.8828125 126.26953125 C136.72122553 122.86011732 140.27703192 119.15936686 143.875 115.5 C152.29821459 106.93304454 152.29821459 106.93304454 156.75 103.125 C162.07777226 98.54628087 166.94672797 93.49862805 171.875 88.5 C182.38156985 77.84343833 182.38156985 77.84343833 186.8125 74.0625 C192.48325012 69.21175652 197.63621948 63.80669064 202.875 58.5 C214.73133747 46.48996927 214.73133747 46.48996927 221.078125 41.07421875 C224.16411178 38.37062599 227.00637222 35.43027509 229.875 32.5 C233.9936751 28.33359102 238.12888523 24.31627171 242.6171875 20.546875 C244.63508796 18.71749811 246.53933489 16.83493842 248.4453125 14.890625 C249.10023682 14.22345459 249.75516113 13.55628418 250.42993164 12.86889648 C251.73817851 11.5288304 253.03981444 10.18226832 254.33374023 8.82836914 C258.87180767 4.18056266 263.15230229 0.18695643 269.75390625 -1.03125 C277.92123703 -0.9361428 281.73140171 1.40621308 287.625 6.9375 C291.4592394 10.93255739 292.63903794 13.73028458 293.375 19.25 C293.10700521 27.65242491 285.80641895 33.92842885 280.1484375 39.3984375 C277.54344018 41.80649344 274.86645723 44.11531261 272.171875 46.421875 C269.12930941 49.17467244 266.25922319 52.08291753 263.375 55 C256.6636307 61.78731124 256.6636307 61.78731124 253 64.875 C248.89341238 68.35249335 245.15847807 72.17969976 241.375 76 C237.03029596 80.38698827 232.68453698 84.65178761 227.9609375 88.6328125 C224.37334239 91.84418041 221.04064484 95.31542737 217.65625 98.73828125 C214.1943295 102.22435468 210.64644176 105.51662534 206.8984375 108.6953125 C204.28482424 111.02637298 201.83346111 113.50816423 199.375 116 C196.36267918 119.05315893 193.33951171 122.0407235 190.0625 124.8125 C186.12098475 128.16888309 182.51362238 131.82318187 178.875 135.5 C174.72992391 139.68845164 170.56583632 143.72670725 166.0625 147.53125 C162.22510488 150.98490561 158.64924795 154.70708313 155.01879883 158.37573242 C151.38567412 162.03235666 147.68466872 165.51892515 143.74609375 168.84765625 C140.66167754 171.57147265 137.82009336 174.53490395 134.953125 177.484375 C133.02557696 179.35395167 131.05999568 180.94491299 128.875 182.5 C130.43278799 187.56281096 133.52677224 191.02093287 136.875 195 C138.06124778 196.43377836 139.24612904 197.86868835 140.4296875 199.3046875 C141.01588867 200.01463867 141.60208984 200.72458984 142.20605469 201.45605469 C144.52957928 204.30165853 146.77442164 207.20250961 149 210.125 C155.45637713 218.58327329 162.0176322 226.95888502 168.6875 235.25 C174.21697356 242.14213405 179.61130077 249.14054473 185.02832031 256.12109375 C187.97439813 259.91625269 190.92484513 263.70801011 193.875 267.5 C195.04168922 268.99998246 196.20835585 270.49998249 197.375 272 C197.9525 272.7425 198.53 273.485 199.125 274.25 C214.875 294.5 230.625 314.75 246.375 335 C246.95282227 335.74290283 247.53064453 336.48580566 248.12597656 337.2512207 C249.28943312 338.74711662 250.45284478 340.24304745 251.61621094 341.73901367 C254.58161998 345.55209776 257.54787262 349.36452064 260.515625 353.17578125 C266.82588456 361.28083439 273.13192208 369.38853501 279.37451172 377.54589844 C281.22406231 379.95458749 283.08340195 382.35563886 284.94140625 384.7578125 C286.39865883 386.65087131 287.85568934 388.54410109 289.3125 390.4375 C290.01165527 391.33831299 290.71081055 392.23912598 291.43115234 393.16723633 C296.83921376 400.21644197 301.12389389 406.33759375 300.875 415.5 C299.38730545 422.79235991 295.15133102 428.13389048 289.0625 432.3125 C283.3634372 435.60410823 278.4795335 436.08814917 272.0625 434.75 C261.80120628 431.26147442 254.83819889 420.43447244 248.6171875 412.1015625 C245.44054192 407.87474687 242.0637958 403.81781021 238.6875 399.75 C234.5970678 394.81213249 230.53276433 389.86898484 226.62890625 384.78125 C224.31674329 381.77389328 221.97078711 378.79366355 219.625 375.8125 C216.80538343 372.22876493 213.98627618 368.64473405 211.1796875 365.05078125 C206.35134895 358.87467118 201.46478546 352.7545834 196.5 346.6875 C191.44926786 340.51138991 186.5742829 334.22039218 181.75488281 327.86279297 C177.4865553 322.25177965 173.07819402 316.76861893 168.61376953 311.31298828 C163.73255671 305.34476408 158.96315899 299.29422404 154.21777344 293.21777344 C151.94266098 290.30728412 149.65842281 287.40397084 147.375 284.5 C144.64403326 281.02685971 141.91472472 277.55251091 139.1953125 274.0703125 C134.29766735 267.80613094 129.34249988 261.59605375 124.3125 255.4375 C120.42530478 250.67815581 116.60160502 245.88626168 112.875 241 C108.93439613 235.84740119 104.93381206 230.74760491 100.875 225.6875 C100.31039062 224.97464844 99.74578125 224.26179687 99.1640625 223.52734375 C98.63554687 222.8725 98.10703125 222.21765625 97.5625 221.54296875 C96.85673828 220.66161255 96.85673828 220.66161255 96.13671875 219.76245117 C95.72035156 219.34584229 95.30398438 218.9292334 94.875 218.5 C91.54078759 218.5 89.62233892 221.30650134 87.3125 223.5 C86.7460376 224.03036865 86.1795752 224.5607373 85.59594727 225.10717773 C83.68409812 226.89968099 81.77934935 228.69953272 79.875 230.5 C78.46903528 231.82452164 77.06277803 233.14873281 75.65625 234.47265625 C73.47481668 236.52629141 71.29368814 238.58024017 69.11401367 240.63574219 C63.08657703 246.3158212 56.99113614 251.91570178 50.875 257.5 C48.78886688 259.41363632 46.70613225 261.33092703 44.625 263.25 C44.09592041 263.73782959 43.56684082 264.22565918 43.02172852 264.72827148 C39.92705225 267.58747825 36.84685444 270.46144268 33.77734375 273.34765625 C33.07706055 274.00604492 32.37677734 274.66443359 31.65527344 275.34277344 C30.3044013 276.61421959 28.95470481 277.88691652 27.60644531 279.16113281 C26.66236816 280.05010254 26.66236816 280.05010254 25.69921875 280.95703125 C25.11510853 281.51767745 24.53099831 282.07832365 23.92918777 282.65595913 C21.875 284.5 21.875 284.5 19.78446579 285.94713688 C16.51422497 288.30938353 14.24967504 290.14972339 13.14745331 294.12197685 C12.8786032 297.35143825 12.86547647 300.49414556 12.93847656 303.73413086 C12.93397995 304.95125259 12.92948334 306.16837433 12.92485046 307.42237854 C12.92070731 310.06018525 12.93092574 312.693164 12.96622467 315.33027458 C13.0218134 319.50454044 13.02032426 323.6776328 13.01141357 327.85218811 C13.00392328 334.45844793 13.03359838 341.06392082 13.07963252 347.67000538 C13.16170552 359.49118088 13.1990107 371.31237603 13.19502425 383.13383204 C13.19533638 387.27746427 13.21781178 391.42019839 13.2585597 395.56362331 C13.28552533 398.7545238 13.28736719 401.94547678 13.29394531 405.13647461 C13.31154404 406.27490814 13.32914276 407.41334167 13.34727478 408.58627319 C13.32960146 416.56087467 12.11410059 421.91285047 6.62109375 427.99609375 C5.85925781 428.63675781 5.09742188 429.27742188 4.3125 429.9375 C3.54808594 430.59621094 2.78367187 431.25492188 1.99609375 431.93359375 C-2.80677553 435.48046407 -8.41345021 434.92795474 -14.125 434.5 C-19.87848147 432.69498621 -24.52417312 428.2678326 -28.125 423.5 C-32.01834944 415.79267075 -31.54738478 407.87321335 -31.51268005 399.44421387 C-31.51685536 397.79721193 -31.52233395 396.15021287 -31.52899987 394.50321913 C-31.54344716 389.98745337 -31.539212 385.47187023 -31.53183305 380.9560945 C-31.52710199 376.08212685 -31.53961062 371.20819874 -31.54985046 366.33424377 C-31.56704435 356.79013574 -31.56787733 347.24609353 -31.56263756 337.70197403 C-31.55859612 329.94526573 -31.56003911 322.18857688 -31.56538582 314.43186951 C-31.56613424 313.32789407 -31.56688266 312.22391864 -31.56765376 311.08648941 C-31.56918524 308.84378453 -31.57072358 306.60107965 -31.57226873 304.35837477 C-31.58599563 283.32853354 -31.58055449 262.29872951 -31.56908352 241.26888913 C-31.55914853 222.02714927 -31.57209609 202.78550554 -31.59601771 183.54378051 C-31.62039547 163.78634178 -31.63001999 144.02894785 -31.62336498 124.27149439 C-31.61987014 113.17913168 -31.62212251 102.08684293 -31.63961601 90.99449158 C-31.65432132 81.55300444 -31.65499517 72.11164336 -31.6375451 62.67015874 C-31.62901943 57.85294923 -31.62692385 53.03596506 -31.64219666 48.21876717 C-31.65600676 43.80834527 -31.65132809 39.39834256 -31.63195742 34.98794514 C-31.62818582 33.39316812 -31.63115271 31.79835782 -31.64156907 30.20361036 C-31.69876071 20.77664913 -31.31826141 14.0225937 -25.44921875 6.29296875 C-18.22952627 -0.78887757 -9.70998529 -4.22581565 0 0 Z " fill="#FFFFFF" transform="translate(320.125,137.5)"/>
<path d="M0 0 C5.42986425 4.69578389 9.49172565 9.21476233 10.2774837 16.61241877 C10.38696343 19.81966688 10.399686 23.0146111 10.38095093 26.22370911 C10.3856309 27.45430626 10.39031087 28.68490342 10.39513266 29.95279139 C10.40501096 33.35707799 10.4014792 36.76086632 10.39217401 40.16512239 C10.38537688 43.84160515 10.39586856 47.51804487 10.40411377 51.19451904 C10.4174506 58.39527525 10.41457232 65.5959376 10.40587585 72.79669748 C10.39909373 78.65593792 10.39818489 84.51515212 10.4014473 90.37439537 C10.401907 91.20918438 10.40236669 92.0439734 10.40284032 92.90405905 C10.40379955 94.60019616 10.40477219 96.29633325 10.4057581 97.99247035 C10.41431334 113.89983296 10.40447877 129.80714372 10.388357 145.71449783 C10.37498077 159.33337294 10.37725936 172.95217123 10.39111328 186.57104492 C10.40721354 202.40541414 10.4134609 218.23973776 10.40427649 234.07411402 C10.40332092 235.76728641 10.40237781 237.46045881 10.4014473 239.15363121 C10.40098447 239.98655889 10.40052164 240.81948657 10.40004479 241.67765448 C10.39746617 247.5172646 10.401802 253.35684558 10.40888596 259.19645119 C10.41735188 266.33200889 10.41491605 273.46746776 10.39904372 280.60301433 C10.39122463 284.23665123 10.38795845 287.87012414 10.39799118 291.50375938 C10.4985551 331.32292595 1.69483197 365.26058312 -26 395 C-26.49258301 395.53109375 -26.98516602 396.0621875 -27.49267578 396.609375 C-49.29912021 419.86190829 -79.0730271 436.65380044 -111.46240234 438.16113281 C-144.47459093 438.54370231 -144.47459093 438.54370231 -157 435 C-157.80904785 434.77425293 -158.6180957 434.54850586 -159.45166016 434.31591797 C-183.02339669 427.52925315 -201.33241064 415.85669861 -219 399 C-219.79277344 398.26007813 -220.58554688 397.52015625 -221.40234375 396.7578125 C-234.47560669 384.21299428 -250.5205817 364.38595034 -252.3125 345.75 C-251.75849555 339.10194664 -249.09321046 334.71609245 -244.25 330.1875 C-239.06189786 325.99674097 -234.2613328 323.64756292 -227.5 323.9375 C-219.37758635 325.23764539 -213.70945787 331.67528003 -209 338 C-207.23481956 341.00754511 -205.71473245 344.11642666 -204.1875 347.25 C-193.73544215 367.76795107 -176.69021562 381.70722074 -154.83203125 388.96875 C-128.0692318 396.17097126 -100.83593926 393.89145291 -76.5625 380.125 C-56.23880105 366.90235249 -43.51908762 347.06283941 -38.46918869 323.4508692 C-35.23366878 306.54970283 -35.73381425 289.1004463 -35.8046875 271.97973633 C-35.8096796 269.22442749 -35.81156203 266.4691186 -35.8135376 263.71380615 C-35.8192598 257.82426796 -35.83205155 251.9347812 -35.84967041 246.04526711 C-35.87498655 237.51955769 -35.88697895 228.99386677 -35.89553714 220.4681259 C-35.90960975 206.61504753 -35.93116803 192.76199288 -35.95898438 178.90893555 C-35.96064 178.08307143 -35.96229562 177.25720732 -35.96400142 176.40631702 C-35.97580694 170.54171094 -35.98788038 164.67710543 -36 158.8125 C-36.01387225 152.09399454 -36.02760109 145.37548881 -36.04101562 138.65698242 C-36.04267188 137.82880789 -36.04432813 137.00063336 -36.04603457 136.14736263 C-36.07342837 122.32660466 -36.092931 108.50584626 -36.10683632 94.68506831 C-36.11577485 86.18098544 -36.13180502 77.67697264 -36.15712595 69.17292245 C-36.17400816 63.352459 -36.18376598 57.53201162 -36.18797636 51.7115253 C-36.19065832 48.35826472 -36.19773982 45.00516599 -36.21149445 41.65192223 C-36.22595865 38.01091892 -36.22800065 34.37010746 -36.22705078 30.7290802 C-36.2342407 29.67917666 -36.24143063 28.62927312 -36.24883842 27.54755431 C-36.22435369 18.76634576 -36.13313386 10.17360293 -29.75 3.5625 C-28.62851562 2.35787109 -28.62851562 2.35787109 -27.484375 1.12890625 C-19.00706247 -6.13545747 -8.77140829 -7.09177692 0 0 Z " fill="#FFFFFF" transform="translate(256,140)"/>
<path d="M0 0 C2 1 2 1 3.07177734 3.50634766 C4.17505591 7.65887693 4.55618058 11.62392605 4.8515625 15.8984375 C4.94719986 17.15087753 4.94719986 17.15087753 5.04476929 18.42861938 C5.2453517 21.07693363 5.43533043 23.72588409 5.625 26.375 C5.75971542 28.17843794 5.89512477 29.98182418 6.03125 31.78515625 C6.3622008 36.18954647 6.68364865 40.59453807 7 45 C9.38102267 42.81898323 11.75363725 40.62901221 14.125 38.4375 C14.79015625 37.82841797 15.4553125 37.21933594 16.140625 36.59179688 C19.92703377 33.08380051 23.38283089 29.52713699 26.57373047 25.46508789 C28.23666993 23.75688869 29.84553691 22.99610766 32 22 C33.03125 21.29875 34.0625 20.5975 35.125 19.875 C38 18 38 18 40 18 C37.17977157 25.99064723 31.6834614 31.82295674 26.15820312 38.05273438 C25.63806641 38.64763672 25.11792969 39.24253906 24.58203125 39.85546875 C24.10999268 40.38809326 23.6379541 40.92071777 23.15161133 41.46948242 C21.78406651 43.11829609 21.78406651 43.11829609 21 46 C21.969375 45.505 22.93875 45.01 23.9375 44.5 C28.28728381 42.60142633 32.33030204 42.71410012 37 43 C37 43.66 37 44.32 37 45 C35.28166524 46.40034072 33.49870901 47.72205227 31.6875 49 C30.70136719 49.70125 29.71523438 50.4025 28.69921875 51.125 C26.81249433 52.43560452 24.91143763 53.72570825 23 55 C23.8470752 55.04487549 24.69415039 55.08975098 25.56689453 55.13598633 C28.73215583 55.31000419 31.89643932 55.49590701 35.06054688 55.68969727 C36.42583442 55.77091056 37.79140658 55.84748554 39.15722656 55.91918945 C41.12895274 56.02353263 43.0996725 56.14636625 45.0703125 56.26953125 C46.84559326 56.37164917 46.84559326 56.37164917 48.65673828 56.47583008 C52.2675295 57.04194434 54.83567238 58.20716192 58 60 C58 60.66 58 61.32 58 62 C50.05521622 64.50512094 42.48557462 65.61664948 34.1875 66.125 C32.01416929 66.27117092 29.84098489 66.41953719 27.66796875 66.5703125 C26.72203857 66.62977051 25.7761084 66.68922852 24.80151367 66.75048828 C21.83184704 67.01497624 18.93391935 67.47532198 16 68 C16.71285156 68.7734375 17.42570312 69.546875 18.16015625 70.34375 C20.6546089 73.05382113 23.14172034 75.77049657 25.62402344 78.49169922 C26.7503786 79.72637313 27.87880229 80.9591597 29.0078125 82.19140625 C34.12777737 87.89480897 39.56078051 94.12156102 43 101 C41.68 101 40.36 101 39 101 C39 100.34 39 99.68 39 99 C38.12085938 98.76667969 37.24171875 98.53335938 36.3359375 98.29296875 C32.57214381 96.83416815 30.52986063 95.09384017 27.625 92.3125 C26.68269531 91.42433594 25.74039063 90.53617187 24.76953125 89.62109375 C23.85558594 88.75613281 22.94164062 87.89117187 22 87 C20.44532015 85.61616409 18.88388152 84.23984115 17.3125 82.875 C16.66925781 82.31554687 16.02601563 81.75609375 15.36328125 81.1796875 C14.91339844 80.79039063 14.46351563 80.40109375 14 80 C13.78363447 83.1269645 13.78363447 83.1269645 15.5 86.125 C17.44488813 90.3891444 17.28195354 94.3947588 17 99 C12.22349131 94.3561721 8.38195088 89.73212014 5 84 C4.93268677 85.26275757 4.93268677 85.26275757 4.86401367 86.55102539 C4.68977004 89.70325102 4.50387367 92.85452194 4.31030273 96.00561523 C4.22919843 97.36407198 4.15261255 98.72280693 4.08081055 100.08178711 C3.3403356 113.98739592 3.3403356 113.98739592 0 120 C-2 117 -2 117 -2 115 C-2.66 115 -3.32 115 -4 115 C-5.32 101.8 -6.64 88.6 -8 75 C-11.96 78.96 -15.92 82.92 -20 87 C-34.0483871 100 -34.0483871 100 -39 100 C-37.60016209 94.60650688 -35.09214145 91.14825205 -31.625 86.9375 C-30.90183594 86.0393457 -30.90183594 86.0393457 -30.1640625 85.12304688 C-29.22267199 83.95526218 -28.27780732 82.79026761 -27.32910156 81.62841797 C-25.53638946 79.43198341 -23.76802858 77.21632019 -22 75 C-22.67546875 75.08378906 -23.3509375 75.16757813 -24.046875 75.25390625 C-24.93890625 75.35574219 -25.8309375 75.45757812 -26.75 75.5625 C-28.07257813 75.71912109 -28.07257813 75.71912109 -29.421875 75.87890625 C-31.88432451 75.99456676 -33.66538064 75.73638695 -36 75 C-36 74.34 -36 73.68 -36 73 C-34.21601386 71.71993203 -32.37146094 70.52339649 -30.5 69.375 C-29.4790625 68.74335937 -28.458125 68.11171875 -27.40625 67.4609375 C-26.6121875 66.97882813 -25.818125 66.49671875 -25 66 C-25.55872803 65.98018066 -26.11745605 65.96036133 -26.69311523 65.93994141 C-29.27497418 65.8434781 -31.85615392 65.73430188 -34.4375 65.625 C-35.31599609 65.5940625 -36.19449219 65.563125 -37.09960938 65.53125 C-44.44469298 65.20600645 -51.43734441 64.50681862 -58 61 C-51.37103916 54.65925485 -39.50849311 55.43090705 -30.9375 54.875 C-29.69033203 54.78863281 -28.44316406 54.70226562 -27.15820312 54.61328125 C-24.10582901 54.40277269 -21.05317439 54.19850261 -18 54 C-21.41739302 49.98165946 -24.87080528 46.01237003 -28.4375 42.125 C-32.53713798 37.58981869 -36.3301949 32.88673529 -40 28 C-40.81791016 26.96746094 -40.81791016 26.96746094 -41.65234375 25.9140625 C-43.2548669 23.63801513 -43.62047139 21.73260601 -44 19 C-37.78729665 20.34932151 -34.37571108 23.99847658 -30 28.3125 C-28.62646206 29.64343761 -27.25148587 30.97289269 -25.875 32.30078125 C-24.89660156 33.24751709 -24.89660156 33.24751709 -23.8984375 34.21337891 C-21.35940912 36.6028606 -18.71164552 38.80949885 -16 41 C-16.495 39.865625 -16.99 38.73125 -17.5 37.5625 C-19.24646333 32.97905868 -19.30300849 28.84813585 -19 24 C-13.90775599 28.79270024 -9.87304742 34.19042886 -6 40 C-4.55975017 37.11950033 -4.7239509 34.48323864 -4.5703125 31.26953125 C-4.49659926 29.89515509 -4.42236345 28.52080687 -4.34765625 27.14648438 C-4.23467827 24.9854749 -4.12555369 22.82450789 -4.02587891 20.6628418 C-3.92745301 18.57261177 -3.81250764 16.48378228 -3.6953125 14.39453125 C-3.63359863 13.14518799 -3.57188477 11.89584473 -3.50830078 10.60864258 C-2.9348829 6.53770615 -1.76794943 3.68732732 0 0 Z " fill="#FCFCFE" transform="translate(281,20)"/>
<path d="" fill="#0000FF" transform="translate(0,0)"/>
<path d="" fill="#0000FF" transform="translate(0,0)"/>
<path d="" fill="#0000FF" transform="translate(0,0)"/>
<path d="" fill="#7F7FFF" transform="translate(0,0)"/>
<path d="" fill="#0000FF" transform="translate(0,0)"/>
<path d="" fill="#0000FF" transform="translate(0,0)"/>
<path d="" fill="#0000FF" transform="translate(0,0)"/>
<path d="" fill="#7F7FFF" transform="translate(0,0)"/>
<path d="" fill="#7F7F7F" transform="translate(0,0)"/>
</svg>
