<svg xmlns="http://www.w3.org/2000/svg" xmlns:xlink="http://www.w3.org/1999/xlink" width="550" zoomAndPan="magnify" viewBox="0 0 412.5 101.249998" height="135" preserveAspectRatio="xMidYMid meet" version="1.0"><defs><g/><clipPath id="0312e9218e"><path d="M 1.269531 0 L 410.734375 0 L 410.734375 100.503906 L 1.269531 100.503906 Z M 1.269531 0 " clip-rule="nonzero"/></clipPath><clipPath id="5d57436687"><path d="M 151 22 L 388 22 L 388 87 L 151 87 Z M 151 22 " clip-rule="nonzero"/></clipPath><clipPath id="d053e40f66"><path d="M 151.773438 69.183594 L 151.773438 24.609375 L 164.597656 24.609375 L 177.101562 55.46875 L 189.484375 24.609375 L 202.242188 24.609375 L 202.242188 69.183594 L 191.386719 69.183594 L 191.386719 42.449219 L 181.421875 69.183594 L 172.660156 69.183594 L 162.632812 42.390625 L 162.632812 69.183594 Z M 225.667969 41.941406 C 222.109375 41.941406 219.378906 44.101562 218.75 48.039062 L 232.332031 48.039062 C 232.332031 44.164062 229.285156 41.941406 225.667969 41.941406 Z M 242.617188 57.433594 C 240.902344 64.355469 234.617188 69.691406 225.792969 69.691406 C 215.382812 69.691406 207.890625 62.707031 207.890625 51.46875 C 207.890625 40.230469 215.253906 33.242188 225.792969 33.242188 C 236.140625 33.242188 243.441406 40.101562 243.441406 50.894531 C 243.441406 51.910156 243.378906 52.992188 243.25 54.070312 L 218.683594 54.070312 C 219.066406 58.707031 221.921875 60.863281 225.414062 60.863281 C 228.457031 60.863281 230.171875 59.339844 231.0625 57.433594 Z M 249.152344 69.183594 L 249.152344 22.195312 L 260.011719 22.195312 L 260.011719 69.183594 Z M 302.542969 51.46875 C 302.542969 62.707031 294.414062 69.691406 284.003906 69.691406 C 273.59375 69.691406 265.722656 62.707031 265.722656 51.46875 C 265.722656 40.230469 273.785156 33.242188 284.132812 33.242188 C 294.542969 33.242188 302.542969 40.230469 302.542969 51.46875 Z M 276.769531 51.46875 C 276.769531 57.433594 280.070312 60.292969 284.003906 60.292969 C 287.878906 60.292969 291.496094 57.433594 291.496094 51.46875 C 291.496094 45.433594 287.945312 42.640625 284.132812 42.640625 C 280.199219 42.640625 276.769531 45.433594 276.769531 51.46875 Z M 306.160156 51.402344 C 306.160156 40.230469 313.082031 33.242188 321.777344 33.242188 C 326.472656 33.242188 330.539062 35.402344 332.695312 38.640625 L 332.695312 22.195312 L 343.550781 22.195312 L 343.550781 69.183594 L 332.695312 69.183594 L 332.695312 64.105469 C 330.726562 67.34375 326.980469 69.691406 321.777344 69.691406 C 313.082031 69.691406 306.160156 62.578125 306.160156 51.40625 Z M 332.695312 51.46875 C 332.695312 45.816406 329.074219 42.707031 324.949219 42.707031 C 320.886719 42.707031 317.207031 45.753906 317.207031 51.402344 C 317.207031 57.054688 320.886719 60.230469 324.949219 60.230469 C 329.074219 60.230469 332.695312 57.121094 332.695312 51.46875 Z M 367.738281 55.910156 L 375.863281 33.75 L 387.605469 33.75 L 365.390625 86.007812 L 353.707031 86.007812 L 361.835938 67.976562 L 347.425781 33.75 L 359.546875 33.75 L 367.734375 55.910156 Z M 367.738281 55.910156 " clip-rule="evenodd"/></clipPath><linearGradient x1="-0.0000000317651" gradientTransform="matrix(235.832369, 0, 0, 63.813462, 151.774586, 22.195991)" y1="-0.0000000318267" x2="0.999031" gradientUnits="userSpaceOnUse" y2="1.000967" id="6e88e80d4b"><stop stop-opacity="1" stop-color="rgb(20.799255%, 63.499451%, 62.399292%)" offset="0"/><stop stop-opacity="1" stop-color="rgb(20.68634%, 63.339233%, 62.257385%)" offset="0.015625"/><stop stop-opacity="1" stop-color="rgb(20.463562%, 63.020325%, 61.975098%)" offset="0.03125"/><stop stop-opacity="1" stop-color="rgb(20.239258%, 62.701416%, 61.69281%)" offset="0.046875"/><stop stop-opacity="1" stop-color="rgb(20.014954%, 62.382507%, 61.410522%)" offset="0.0625"/><stop stop-opacity="1" stop-color="rgb(19.790649%, 62.063599%, 61.128235%)" offset="0.078125"/><stop stop-opacity="1" stop-color="rgb(19.567871%, 61.74469%, 60.845947%)" offset="0.09375"/><stop stop-opacity="1" stop-color="rgb(19.343567%, 61.425781%, 60.56366%)" offset="0.109375"/><stop stop-opacity="1" stop-color="rgb(19.119263%, 61.106873%, 60.281372%)" offset="0.125"/><stop stop-opacity="1" stop-color="rgb(18.896484%, 60.787964%, 59.999084%)" offset="0.140625"/><stop stop-opacity="1" stop-color="rgb(18.67218%, 60.469055%, 59.716797%)" offset="0.15625"/><stop stop-opacity="1" stop-color="rgb(18.447876%, 60.150146%, 59.434509%)" offset="0.171875"/><stop stop-opacity="1" stop-color="rgb(18.223572%, 59.831238%, 59.153748%)" offset="0.1875"/><stop stop-opacity="1" stop-color="rgb(18.000793%, 59.512329%, 58.87146%)" offset="0.203125"/><stop stop-opacity="1" stop-color="rgb(17.776489%, 59.19342%, 58.589172%)" offset="0.21875"/><stop stop-opacity="1" stop-color="rgb(17.552185%, 58.874512%, 58.306885%)" offset="0.234375"/><stop stop-opacity="1" stop-color="rgb(17.327881%, 58.555603%, 58.024597%)" offset="0.25"/><stop stop-opacity="1" stop-color="rgb(17.105103%, 58.236694%, 57.74231%)" offset="0.265625"/><stop stop-opacity="1" stop-color="rgb(16.880798%, 57.919312%, 57.460022%)" offset="0.28125"/><stop stop-opacity="1" stop-color="rgb(16.656494%, 57.600403%, 57.177734%)" offset="0.296875"/><stop stop-opacity="1" stop-color="rgb(16.433716%, 57.281494%, 56.895447%)" offset="0.3125"/><stop stop-opacity="1" stop-color="rgb(16.209412%, 56.962585%, 56.613159%)" offset="0.328125"/><stop stop-opacity="1" stop-color="rgb(15.985107%, 56.643677%, 56.330872%)" offset="0.34375"/><stop stop-opacity="1" stop-color="rgb(15.760803%, 56.324768%, 56.048584%)" offset="0.359375"/><stop stop-opacity="1" stop-color="rgb(15.538025%, 56.005859%, 55.766296%)" offset="0.375"/><stop stop-opacity="1" stop-color="rgb(15.313721%, 55.686951%, 55.484009%)" offset="0.390625"/><stop stop-opacity="1" stop-color="rgb(15.089417%, 55.368042%, 55.201721%)" offset="0.40625"/><stop stop-opacity="1" stop-color="rgb(14.866638%, 55.049133%, 54.919434%)" offset="0.421875"/><stop stop-opacity="1" stop-color="rgb(14.642334%, 54.730225%, 54.637146%)" offset="0.4375"/><stop stop-opacity="1" stop-color="rgb(14.41803%, 54.411316%, 54.354858%)" offset="0.453125"/><stop stop-opacity="1" stop-color="rgb(14.193726%, 54.092407%, 54.072571%)" offset="0.46875"/><stop stop-opacity="1" stop-color="rgb(13.970947%, 53.773499%, 53.790283%)" offset="0.484375"/><stop stop-opacity="1" stop-color="rgb(13.746643%, 53.45459%, 53.507996%)" offset="0.499516"/><stop stop-opacity="1" stop-color="rgb(13.635254%, 53.295898%, 53.367615%)" offset="0.5"/><stop stop-opacity="1" stop-color="rgb(13.522339%, 53.135681%, 53.225708%)" offset="0.500484"/><stop stop-opacity="1" stop-color="rgb(13.41095%, 52.97699%, 53.085327%)" offset="0.515625"/><stop stop-opacity="1" stop-color="rgb(13.299561%, 52.816772%, 52.94342%)" offset="0.53125"/><stop stop-opacity="1" stop-color="rgb(13.075256%, 52.497864%, 52.662659%)" offset="0.546875"/><stop stop-opacity="1" stop-color="rgb(12.850952%, 52.178955%, 52.380371%)" offset="0.5625"/><stop stop-opacity="1" stop-color="rgb(12.626648%, 51.860046%, 52.098083%)" offset="0.578125"/><stop stop-opacity="1" stop-color="rgb(12.40387%, 51.541138%, 51.815796%)" offset="0.59375"/><stop stop-opacity="1" stop-color="rgb(12.179565%, 51.222229%, 51.533508%)" offset="0.609375"/><stop stop-opacity="1" stop-color="rgb(11.955261%, 50.90332%, 51.251221%)" offset="0.625"/><stop stop-opacity="1" stop-color="rgb(11.730957%, 50.584412%, 50.968933%)" offset="0.640625"/><stop stop-opacity="1" stop-color="rgb(11.508179%, 50.265503%, 50.686646%)" offset="0.65625"/><stop stop-opacity="1" stop-color="rgb(11.283875%, 49.946594%, 50.404358%)" offset="0.671875"/><stop stop-opacity="1" stop-color="rgb(11.05957%, 49.627686%, 50.12207%)" offset="0.6875"/><stop stop-opacity="1" stop-color="rgb(10.836792%, 49.308777%, 49.839783%)" offset="0.703125"/><stop stop-opacity="1" stop-color="rgb(10.612488%, 48.991394%, 49.557495%)" offset="0.71875"/><stop stop-opacity="1" stop-color="rgb(10.388184%, 48.672485%, 49.275208%)" offset="0.734375"/><stop stop-opacity="1" stop-color="rgb(10.163879%, 48.353577%, 48.99292%)" offset="0.75"/><stop stop-opacity="1" stop-color="rgb(9.941101%, 48.034668%, 48.710632%)" offset="0.765625"/><stop stop-opacity="1" stop-color="rgb(9.716797%, 47.715759%, 48.428345%)" offset="0.78125"/><stop stop-opacity="1" stop-color="rgb(9.492493%, 47.396851%, 48.146057%)" offset="0.796875"/><stop stop-opacity="1" stop-color="rgb(9.269714%, 47.077942%, 47.86377%)" offset="0.8125"/><stop stop-opacity="1" stop-color="rgb(9.04541%, 46.759033%, 47.581482%)" offset="0.828125"/><stop stop-opacity="1" stop-color="rgb(8.821106%, 46.440125%, 47.299194%)" offset="0.84375"/><stop stop-opacity="1" stop-color="rgb(8.596802%, 46.121216%, 47.016907%)" offset="0.859375"/><stop stop-opacity="1" stop-color="rgb(8.374023%, 45.802307%, 46.734619%)" offset="0.875"/><stop stop-opacity="1" stop-color="rgb(8.149719%, 45.483398%, 46.453857%)" offset="0.890625"/><stop stop-opacity="1" stop-color="rgb(7.925415%, 45.16449%, 46.17157%)" offset="0.90625"/><stop stop-opacity="1" stop-color="rgb(7.702637%, 44.845581%, 45.889282%)" offset="0.921875"/><stop stop-opacity="1" stop-color="rgb(7.478333%, 44.526672%, 45.606995%)" offset="0.9375"/><stop stop-opacity="1" stop-color="rgb(7.254028%, 44.207764%, 45.324707%)" offset="0.953125"/><stop stop-opacity="1" stop-color="rgb(7.029724%, 43.888855%, 45.042419%)" offset="0.96875"/><stop stop-opacity="1" stop-color="rgb(6.806946%, 43.569946%, 44.760132%)" offset="0.984375"/><stop stop-opacity="1" stop-color="rgb(6.582642%, 43.251038%, 44.477844%)" offset="1"/></linearGradient><clipPath id="d0fcc187a0"><path d="M 1.269531 0 L 141 0 L 141 99.882812 L 1.269531 99.882812 Z M 1.269531 0 " clip-rule="nonzero"/></clipPath><linearGradient x1="-0.100655" gradientTransform="matrix(33, 0, 0, 33, 5.5, 1)" y1="0.70657" x2="1.132213" gradientUnits="userSpaceOnUse" y2="0.43865" id="ba6eb8f1e6"><stop stop-opacity="1" stop-color="rgb(20.799255%, 63.499451%, 62.399292%)" offset="0"/><stop stop-opacity="1" stop-color="rgb(20.687866%, 63.340759%, 62.258911%)" offset="0.03125"/><stop stop-opacity="1" stop-color="rgb(20.477295%, 63.041687%, 61.993408%)" offset="0.046875"/><stop stop-opacity="1" stop-color="rgb(20.278931%, 62.757874%, 61.743164%)" offset="0.0625"/><stop stop-opacity="1" stop-color="rgb(20.080566%, 62.475586%, 61.49292%)" offset="0.078125"/><stop stop-opacity="1" stop-color="rgb(19.882202%, 62.191772%, 61.242676%)" offset="0.09375"/><stop stop-opacity="1" stop-color="rgb(19.682312%, 61.909485%, 60.992432%)" offset="0.109375"/><stop stop-opacity="1" stop-color="rgb(19.483948%, 61.625671%, 60.740662%)" offset="0.125"/><stop stop-opacity="1" stop-color="rgb(19.285583%, 61.343384%, 60.490417%)" offset="0.140625"/><stop stop-opacity="1" stop-color="rgb(19.087219%, 61.05957%, 60.240173%)" offset="0.15625"/><stop stop-opacity="1" stop-color="rgb(18.887329%, 60.777283%, 59.989929%)" offset="0.171875"/><stop stop-opacity="1" stop-color="rgb(18.688965%, 60.493469%, 59.739685%)" offset="0.178519"/><stop stop-opacity="1" stop-color="rgb(18.589783%, 60.353088%, 59.614563%)" offset="0.1875"/><stop stop-opacity="1" stop-color="rgb(18.490601%, 60.211182%, 59.487915%)" offset="0.203125"/><stop stop-opacity="1" stop-color="rgb(18.29071%, 59.927368%, 59.237671%)" offset="0.21875"/><stop stop-opacity="1" stop-color="rgb(18.092346%, 59.645081%, 58.987427%)" offset="0.234375"/><stop stop-opacity="1" stop-color="rgb(17.893982%, 59.361267%, 58.737183%)" offset="0.25"/><stop stop-opacity="1" stop-color="rgb(17.695618%, 59.077454%, 58.486938%)" offset="0.265625"/><stop stop-opacity="1" stop-color="rgb(17.495728%, 58.795166%, 58.235168%)" offset="0.28125"/><stop stop-opacity="1" stop-color="rgb(17.297363%, 58.511353%, 57.984924%)" offset="0.296875"/><stop stop-opacity="1" stop-color="rgb(17.098999%, 58.229065%, 57.73468%)" offset="0.3125"/><stop stop-opacity="1" stop-color="rgb(16.900635%, 57.945251%, 57.484436%)" offset="0.328125"/><stop stop-opacity="1" stop-color="rgb(16.700745%, 57.662964%, 57.234192%)" offset="0.34375"/><stop stop-opacity="1" stop-color="rgb(16.50238%, 57.37915%, 56.982422%)" offset="0.359375"/><stop stop-opacity="1" stop-color="rgb(16.304016%, 57.096863%, 56.732178%)" offset="0.375"/><stop stop-opacity="1" stop-color="rgb(16.105652%, 56.813049%, 56.481934%)" offset="0.390625"/><stop stop-opacity="1" stop-color="rgb(15.905762%, 56.530762%, 56.231689%)" offset="0.40625"/><stop stop-opacity="1" stop-color="rgb(15.707397%, 56.246948%, 55.981445%)" offset="0.421875"/><stop stop-opacity="1" stop-color="rgb(15.509033%, 55.964661%, 55.729675%)" offset="0.4375"/><stop stop-opacity="1" stop-color="rgb(15.310669%, 55.680847%, 55.479431%)" offset="0.453125"/><stop stop-opacity="1" stop-color="rgb(15.110779%, 55.39856%, 55.229187%)" offset="0.46875"/><stop stop-opacity="1" stop-color="rgb(14.912415%, 55.114746%, 54.978943%)" offset="0.484375"/><stop stop-opacity="1" stop-color="rgb(14.71405%, 54.832458%, 54.728699%)" offset="0.5"/><stop stop-opacity="1" stop-color="rgb(14.515686%, 54.548645%, 54.476929%)" offset="0.515625"/><stop stop-opacity="1" stop-color="rgb(14.315796%, 54.266357%, 54.226685%)" offset="0.53125"/><stop stop-opacity="1" stop-color="rgb(14.117432%, 53.982544%, 53.97644%)" offset="0.546875"/><stop stop-opacity="1" stop-color="rgb(13.919067%, 53.700256%, 53.726196%)" offset="0.5625"/><stop stop-opacity="1" stop-color="rgb(13.720703%, 53.416443%, 53.474426%)" offset="0.578125"/><stop stop-opacity="1" stop-color="rgb(13.520813%, 53.134155%, 53.224182%)" offset="0.59375"/><stop stop-opacity="1" stop-color="rgb(13.322449%, 52.850342%, 52.973938%)" offset="0.609375"/><stop stop-opacity="1" stop-color="rgb(13.124084%, 52.568054%, 52.723694%)" offset="0.625"/><stop stop-opacity="1" stop-color="rgb(12.924194%, 52.284241%, 52.47345%)" offset="0.640625"/><stop stop-opacity="1" stop-color="rgb(12.72583%, 52.000427%, 52.22168%)" offset="0.65625"/><stop stop-opacity="1" stop-color="rgb(12.527466%, 51.71814%, 51.971436%)" offset="0.671875"/><stop stop-opacity="1" stop-color="rgb(12.329102%, 51.434326%, 51.721191%)" offset="0.6875"/><stop stop-opacity="1" stop-color="rgb(12.129211%, 51.152039%, 51.470947%)" offset="0.703125"/><stop stop-opacity="1" stop-color="rgb(11.930847%, 50.868225%, 51.220703%)" offset="0.71875"/><stop stop-opacity="1" stop-color="rgb(11.732483%, 50.585938%, 50.968933%)" offset="0.734375"/><stop stop-opacity="1" stop-color="rgb(11.534119%, 50.302124%, 50.718689%)" offset="0.75"/><stop stop-opacity="1" stop-color="rgb(11.334229%, 50.019836%, 50.468445%)" offset="0.765625"/><stop stop-opacity="1" stop-color="rgb(11.135864%, 49.736023%, 50.218201%)" offset="0.78125"/><stop stop-opacity="1" stop-color="rgb(10.9375%, 49.453735%, 49.967957%)" offset="0.796875"/><stop stop-opacity="1" stop-color="rgb(10.739136%, 49.169922%, 49.716187%)" offset="0.8125"/><stop stop-opacity="1" stop-color="rgb(10.539246%, 48.887634%, 49.465942%)" offset="0.821481"/><stop stop-opacity="1" stop-color="rgb(10.440063%, 48.745728%, 49.34082%)" offset="0.828125"/><stop stop-opacity="1" stop-color="rgb(10.340881%, 48.603821%, 49.215698%)" offset="0.84375"/><stop stop-opacity="1" stop-color="rgb(10.142517%, 48.321533%, 48.965454%)" offset="0.859375"/><stop stop-opacity="1" stop-color="rgb(9.944153%, 48.03772%, 48.71521%)" offset="0.875"/><stop stop-opacity="1" stop-color="rgb(9.744263%, 47.755432%, 48.46344%)" offset="0.890625"/><stop stop-opacity="1" stop-color="rgb(9.545898%, 47.471619%, 48.213196%)" offset="0.90625"/><stop stop-opacity="1" stop-color="rgb(9.347534%, 47.189331%, 47.962952%)" offset="0.921875"/><stop stop-opacity="1" stop-color="rgb(9.14917%, 46.905518%, 47.712708%)" offset="0.9375"/><stop stop-opacity="1" stop-color="rgb(8.94928%, 46.62323%, 47.462463%)" offset="0.953125"/><stop stop-opacity="1" stop-color="rgb(8.750916%, 46.339417%, 47.210693%)" offset="0.96875"/><stop stop-opacity="1" stop-color="rgb(8.552551%, 46.057129%, 46.960449%)" offset="0.984375"/><stop stop-opacity="1" stop-color="rgb(8.354187%, 45.773315%, 46.710205%)" offset="1"/></linearGradient><clipPath id="c06209d2ea"><path d="M 114.472656 0 L 410.734375 0 L 410.734375 100.503906 L 114.472656 100.503906 Z M 114.472656 0 " clip-rule="nonzero"/></clipPath></defs><g clip-path="url(#0312e9218e)"><path fill="#ffffff" d="M 1.269531 0 L 411.230469 0 L 411.230469 108.082031 L 1.269531 108.082031 Z M 1.269531 0 " fill-opacity="1" fill-rule="nonzero"/><path fill="#ffffff" d="M 1.269531 0 L 411.230469 0 L 411.230469 100.628906 L 1.269531 100.628906 Z M 1.269531 0 " fill-opacity="1" fill-rule="nonzero"/><path fill="#ffffff" d="M 1.269531 0 L 411.230469 0 L 411.230469 100.628906 L 1.269531 100.628906 Z M 1.269531 0 " fill-opacity="1" fill-rule="nonzero"/></g><g clip-path="url(#5d57436687)"><g clip-path="url(#d053e40f66)"><path fill="url(#6e88e80d4b)" d="M 151.773438 22.195312 L 151.773438 86.007812 L 387.605469 86.007812 L 387.605469 22.195312 Z M 151.773438 22.195312 " fill-rule="nonzero"/></g></g><path fill="#1d5b79" d="M 108.769531 48.554688 C 108.769531 50.054688 108.695312 51.546875 108.550781 53.039062 C 108.402344 54.53125 108.183594 56.015625 107.890625 57.484375 C 107.597656 58.957031 107.234375 60.40625 106.796875 61.84375 C 106.363281 63.277344 105.859375 64.6875 105.285156 66.074219 C 104.710938 67.457031 104.070312 68.8125 103.363281 70.132812 C 102.65625 71.457031 101.886719 72.742188 101.054688 73.988281 C 100.222656 75.234375 99.328125 76.4375 98.378906 77.597656 C 97.425781 78.753906 96.421875 79.863281 95.363281 80.925781 C 94.300781 81.984375 93.191406 82.992188 92.03125 83.941406 C 90.875 84.894531 89.671875 85.785156 88.425781 86.617188 C 87.175781 87.449219 85.894531 88.21875 84.570312 88.925781 C 83.25 89.632812 81.894531 90.273438 80.507812 90.847656 C 79.125 91.421875 77.714844 91.925781 76.28125 92.363281 C 74.84375 92.796875 73.390625 93.160156 71.921875 93.453125 C 70.453125 93.746094 68.96875 93.964844 67.476562 94.113281 C 65.984375 94.257812 64.488281 94.332031 62.992188 94.332031 C 61.492188 94.332031 59.996094 94.257812 58.503906 94.113281 C 57.011719 93.964844 55.53125 93.746094 54.058594 93.453125 C 52.589844 93.160156 51.136719 92.796875 49.703125 92.363281 C 48.265625 91.925781 46.855469 91.421875 45.472656 90.847656 C 44.085938 90.273438 42.734375 89.632812 41.410156 88.925781 C 40.089844 88.21875 38.804688 87.449219 37.558594 86.617188 C 36.308594 85.785156 35.109375 84.894531 33.949219 83.941406 C 32.789062 82.992188 31.679688 81.984375 30.621094 80.925781 C 29.558594 79.863281 28.554688 78.753906 27.601562 77.597656 C 26.652344 76.4375 25.757812 75.234375 24.925781 73.988281 C 24.09375 72.742188 23.324219 71.457031 22.617188 70.132812 C 21.910156 68.8125 21.269531 67.457031 20.695312 66.074219 C 20.121094 64.6875 19.617188 63.277344 19.183594 61.84375 C 18.746094 60.40625 18.382812 58.957031 18.089844 57.484375 C 17.796875 56.015625 17.578125 54.53125 17.433594 53.039062 C 17.285156 51.546875 17.210938 50.054688 17.210938 48.554688 C 17.210938 47.054688 17.285156 45.558594 17.433594 44.066406 C 17.578125 42.574219 17.796875 41.09375 18.089844 39.621094 C 18.382812 38.152344 18.746094 36.699219 19.183594 35.265625 C 19.617188 33.828125 20.121094 32.421875 20.695312 31.035156 C 21.269531 29.648438 21.910156 28.296875 22.617188 26.972656 C 23.324219 25.652344 24.09375 24.367188 24.925781 23.121094 C 25.757812 21.875 26.652344 20.671875 27.601562 19.511719 C 28.554688 18.351562 29.558594 17.242188 30.621094 16.183594 C 31.679688 15.121094 32.789062 14.117188 33.949219 13.164062 C 35.109375 12.214844 36.308594 11.324219 37.558594 10.488281 C 38.804688 9.65625 40.089844 8.886719 41.410156 8.179688 C 42.734375 7.472656 44.085938 6.832031 45.472656 6.257812 C 46.855469 5.683594 48.265625 5.179688 49.703125 4.746094 C 51.136719 4.308594 52.589844 3.945312 54.058594 3.652344 C 55.53125 3.363281 57.011719 3.140625 58.503906 2.996094 C 59.996094 2.847656 61.492188 2.773438 62.992188 2.773438 C 64.488281 2.773438 65.984375 2.847656 67.476562 2.996094 C 68.96875 3.140625 70.453125 3.363281 71.921875 3.652344 C 73.390625 3.945312 74.84375 4.308594 76.28125 4.746094 C 77.714844 5.179688 79.125 5.683594 80.507812 6.257812 C 81.894531 6.832031 83.25 7.472656 84.570312 8.179688 C 85.894531 8.886719 87.175781 9.65625 88.425781 10.488281 C 89.671875 11.324219 90.875 12.214844 92.03125 13.164062 C 93.191406 14.117188 94.300781 15.121094 95.363281 16.183594 C 96.421875 17.242188 97.425781 18.351562 98.378906 19.511719 C 99.328125 20.671875 100.222656 21.875 101.054688 23.121094 C 101.886719 24.367188 102.65625 25.652344 103.363281 26.972656 C 104.070312 28.296875 104.710938 29.648438 105.285156 31.035156 C 105.859375 32.421875 106.363281 33.828125 106.796875 35.265625 C 107.234375 36.699219 107.597656 38.152344 107.890625 39.621094 C 108.183594 41.09375 108.402344 42.574219 108.550781 44.066406 C 108.695312 45.558594 108.769531 47.054688 108.769531 48.554688 Z M 108.769531 48.554688 " fill-opacity="1" fill-rule="nonzero"/><g clip-path="url(#d0fcc187a0)"><path stroke-linecap="butt" transform="matrix(2.774498, 0, 0, 2.774498, 1.951658, 0.000000992647)" fill="none" stroke-linejoin="miter" d="M 38.499885 17.500347 C 38.499885 18.040985 38.473135 18.578808 38.421042 19.11663 C 38.367541 19.654453 38.288698 20.189459 38.183105 20.718834 C 38.077511 21.249617 37.946575 21.771952 37.788889 22.290064 C 37.632611 22.806768 37.45099 23.315024 37.244027 23.814833 C 37.037064 24.313234 36.806167 24.801779 36.551335 25.277653 C 36.296502 25.754936 36.019144 26.218139 35.719258 26.667263 C 35.419373 27.116387 35.096961 27.550024 34.754839 27.968173 C 34.411308 28.384915 34.049475 28.784762 33.667931 29.167715 C 33.284978 29.549259 32.885131 29.9125 32.466982 30.254623 C 32.05024 30.598153 31.616603 30.919157 31.167479 31.219042 C 30.716947 31.518928 30.255152 31.796286 29.777869 32.051119 C 29.301995 32.305951 28.81345 32.536848 28.313641 32.743811 C 27.81524 32.950774 27.306984 33.132395 26.79028 33.290081 C 26.272168 33.446359 25.748425 33.577295 25.21905 33.682889 C 24.689675 33.788482 24.154669 33.867325 23.616846 33.920826 C 23.079024 33.972919 22.539793 33.999669 22.000563 33.999669 C 21.459925 33.999669 20.920694 33.972919 20.382872 33.920826 C 19.84505 33.867325 19.311451 33.788482 18.780668 33.682889 C 18.251293 33.577295 17.72755 33.446359 17.210846 33.290081 C 16.692734 33.132395 16.184478 32.950774 15.686077 32.743811 C 15.186268 32.536848 14.699131 32.305951 14.221849 32.051119 C 13.745974 31.796286 13.282771 31.518928 12.833647 31.219042 C 12.383115 30.919157 11.950886 30.598153 11.532737 30.254623 C 11.114587 29.9125 10.71474 29.549259 10.333195 29.167715 C 9.950243 28.784762 9.58841 28.384915 9.244879 27.968173 C 8.902757 27.550024 8.580345 27.116387 8.28046 26.667263 C 7.980574 26.218139 7.703216 25.754936 7.448384 25.277653 C 7.193551 24.801779 6.962654 24.313234 6.755691 23.814833 C 6.548728 23.315024 6.367107 22.806768 6.210829 22.290064 C 6.053143 21.771952 5.922207 21.249617 5.816613 20.718834 C 5.71102 20.189459 5.632177 19.654453 5.580084 19.11663 C 5.526584 18.578808 5.499833 18.040985 5.499833 17.500347 C 5.499833 16.959709 5.526584 16.420478 5.580084 15.882656 C 5.632177 15.344834 5.71102 14.811235 5.816613 14.280452 C 5.922207 13.751077 6.053143 13.227334 6.210829 12.71063 C 6.367107 12.192518 6.548728 11.68567 6.755691 11.185861 C 6.962654 10.686052 7.193551 10.198915 7.448384 9.721633 C 7.703216 9.245758 7.980574 8.782555 8.28046 8.333431 C 8.580345 7.884307 8.902757 7.45067 9.244879 7.032521 C 9.58841 6.614371 9.950243 6.214524 10.333195 5.832979 C 10.71474 5.450027 11.114587 5.088194 11.532737 4.744663 C 11.950886 4.402541 12.383115 4.081537 12.833647 3.780244 C 13.282771 3.480358 13.745974 3.203 14.221849 2.948168 C 14.699131 2.693335 15.186268 2.462438 15.686077 2.255475 C 16.184478 2.048512 16.692734 1.866891 17.210846 1.710613 C 17.72755 1.552927 18.251293 1.421991 18.780668 1.316397 C 19.311451 1.212212 19.84505 1.131961 20.382872 1.079868 C 20.920694 1.026368 21.459925 0.999617 22.000563 0.999617 C 22.539793 0.999617 23.079024 1.026368 23.616846 1.079868 C 24.154669 1.131961 24.689675 1.212212 25.21905 1.316397 C 25.748425 1.421991 26.272168 1.552927 26.79028 1.710613 C 27.306984 1.866891 27.81524 2.048512 28.313641 2.255475 C 28.81345 2.462438 29.301995 2.693335 29.777869 2.948168 C 30.255152 3.203 30.716947 3.480358 31.167479 3.780244 C 31.616603 4.081537 32.05024 4.402541 32.466982 4.744663 C 32.885131 5.088194 33.284978 5.450027 33.667931 5.832979 C 34.049475 6.214524 34.411308 6.614371 34.754839 7.032521 C 35.096961 7.45067 35.419373 7.884307 35.719258 8.333431 C 36.019144 8.782555 36.296502 9.245758 36.551335 9.721633 C 36.806167 10.198915 37.037064 10.686052 37.244027 11.185861 C 37.45099 11.68567 37.632611 12.192518 37.788889 12.71063 C 37.946575 13.227334 38.077511 13.751077 38.183105 14.280452 C 38.288698 14.811235 38.367541 15.344834 38.421042 15.882656 C 38.473135 16.420478 38.499885 16.959709 38.499885 17.500347 Z M 38.499885 17.500347 " stroke="url(#ba6eb8f1e6)" stroke-width="2" stroke-miterlimit="4"/></g><g fill="#ffffff" fill-opacity="1"><g transform="translate(29.694055, 66.584081)"><g><path d="M 12.21875 -37.609375 L 7.09375 -38.390625 L 7.09375 -39.96875 L 22.46875 -39.96875 L 22.46875 -38.390625 L 17.9375 -37.609375 L 17.9375 -12.875 C 17.9375 -10.207031 17.53125 -7.875 16.71875 -5.875 C 15.90625 -3.882812 14.664062 -2.304688 13 -1.140625 C 11.34375 0.015625 9.492188 0.59375 7.453125 0.59375 C 4.910156 0.59375 2.851562 0.296875 1.28125 -0.296875 L 1.28125 -7.5625 L 3.25 -7.5625 L 4.140625 -3.421875 C 4.515625 -2.960938 5.050781 -2.601562 5.75 -2.34375 C 6.445312 -2.09375 7.210938 -1.96875 8.046875 -1.96875 C 10.828125 -1.96875 12.21875 -3.851562 12.21875 -7.625 Z M 12.21875 -37.609375 "/></g></g></g><g fill="#ffffff" fill-opacity="1"><g transform="translate(53.443959, 66.584081)"><g><path d="M 40.3125 -39.96875 L 40.3125 -38.390625 L 35.703125 -37.609375 L 22.046875 -24.25 L 39.125 -2.390625 L 43.453125 -1.578125 L 43.453125 0 L 33.671875 0 L 18.03125 -20.203125 L 12.640625 -15.890625 L 12.640625 -2.390625 L 18.359375 -1.578125 L 18.359375 0 L 1.765625 0 L 1.765625 -1.578125 L 6.890625 -2.390625 L 6.890625 -37.609375 L 1.765625 -38.390625 L 1.765625 -39.96875 L 17.765625 -39.96875 L 17.765625 -38.390625 L 12.640625 -37.609375 L 12.640625 -18.78125 L 31.765625 -37.609375 L 27.796875 -38.390625 L 27.796875 -39.96875 Z M 40.3125 -39.96875 "/></g></g></g><g clip-path="url(#c06209d2ea)"><path fill="#ffffff" d="M 114.472656 0 L 411.167969 0 L 411.167969 103.773438 L 114.472656 103.773438 Z M 114.472656 0 " fill-opacity="1" fill-rule="nonzero"/></g><g fill="#1d5b79" fill-opacity="1"><g transform="translate(138.82199, 68.630853)"><g><path d="M 2.625 -39.09375 C 3.800781 -39.09375 4.796875 -39.082031 5.609375 -39.0625 C 6.429688 -39.039062 7.171875 -39.007812 7.828125 -38.96875 C 8.492188 -38.9375 9.097656 -38.910156 9.640625 -38.890625 C 10.179688 -38.867188 10.785156 -38.859375 11.453125 -38.859375 C 12.078125 -38.859375 12.671875 -38.867188 13.234375 -38.890625 C 13.796875 -38.910156 14.410156 -38.9375 15.078125 -38.96875 C 15.742188 -39.007812 16.484375 -39.039062 17.296875 -39.0625 C 18.117188 -39.082031 19.113281 -39.09375 20.28125 -39.09375 L 20.28125 -38.046875 C 19.65625 -38.046875 19.054688 -37.992188 18.484375 -37.890625 C 17.921875 -37.796875 17.425781 -37.613281 17 -37.34375 C 16.570312 -37.070312 16.234375 -36.691406 15.984375 -36.203125 C 15.734375 -35.710938 15.609375 -35.0625 15.609375 -34.25 L 15.609375 -0.171875 C 15.609375 2.003906 15.390625 4.046875 14.953125 5.953125 C 14.523438 7.867188 13.773438 9.535156 12.703125 10.953125 C 11.640625 12.378906 10.210938 13.507812 8.421875 14.34375 C 6.628906 15.1875 4.382812 15.609375 1.6875 15.609375 C 0.988281 15.609375 0.0976562 15.554688 -0.984375 15.453125 C -2.078125 15.359375 -3.128906 15.144531 -4.140625 14.8125 C -5.160156 14.476562 -6.039062 13.976562 -6.78125 13.3125 C -7.519531 12.65625 -7.890625 11.765625 -7.890625 10.640625 C -7.890625 9.742188 -7.585938 9.078125 -6.984375 8.640625 C -6.378906 8.210938 -5.785156 8 -5.203125 8 C -4.347656 8 -3.695312 8.234375 -3.25 8.703125 C -2.800781 9.171875 -2.46875 9.6875 -2.25 10.25 C -2.03125 10.820312 -1.890625 11.347656 -1.828125 11.828125 C -1.773438 12.316406 -1.75 12.582031 -1.75 12.625 C -1.4375 13.28125 -0.976562 13.6875 -0.375 13.84375 C 0.226562 14 0.898438 14.078125 1.640625 14.078125 C 2.535156 14.078125 3.332031 13.875 4.03125 13.46875 C 4.726562 13.0625 5.320312 12.378906 5.8125 11.421875 C 6.300781 10.472656 6.671875 9.207031 6.921875 7.625 C 7.179688 6.050781 7.3125 4.09375 7.3125 1.75 L 7.3125 -34.25 C 7.3125 -35.0625 7.179688 -35.710938 6.921875 -36.203125 C 6.671875 -36.691406 6.332031 -37.070312 5.90625 -37.34375 C 5.476562 -37.613281 4.976562 -37.796875 4.40625 -37.890625 C 3.84375 -37.992188 3.25 -38.046875 2.625 -38.046875 Z M 2.625 -39.09375 "/></g></g></g><g fill="#1d5b79" fill-opacity="1"><g transform="translate(161.255206, 68.630853)"><g><path d="M 23.78125 -39.796875 C 26.582031 -39.796875 29.25 -39.316406 31.78125 -38.359375 C 34.320312 -37.410156 36.554688 -36.046875 38.484375 -34.265625 C 40.410156 -32.492188 41.945312 -30.351562 43.09375 -27.84375 C 44.25 -25.332031 44.828125 -22.535156 44.828125 -19.453125 C 44.828125 -16.296875 44.25 -13.472656 43.09375 -10.984375 C 41.945312 -8.492188 40.410156 -6.367188 38.484375 -4.609375 C 36.554688 -2.859375 34.320312 -1.515625 31.78125 -0.578125 C 29.25 0.347656 26.582031 0.8125 23.78125 0.8125 C 20.78125 0.8125 17.992188 0.335938 15.421875 -0.609375 C 12.859375 -1.566406 10.628906 -2.929688 8.734375 -4.703125 C 6.847656 -6.472656 5.359375 -8.613281 4.265625 -11.125 C 3.171875 -13.644531 2.625 -16.460938 2.625 -19.578125 C 2.625 -22.535156 3.160156 -25.25 4.234375 -27.71875 C 5.304688 -30.195312 6.785156 -32.332031 8.671875 -34.125 C 10.566406 -35.914062 12.804688 -37.304688 15.390625 -38.296875 C 17.984375 -39.296875 20.78125 -39.796875 23.78125 -39.796875 Z M 23.78125 -38.21875 C 21.71875 -38.21875 19.925781 -37.691406 18.40625 -36.640625 C 16.882812 -35.585938 15.628906 -34.191406 14.640625 -32.453125 C 13.648438 -30.722656 12.910156 -28.726562 12.421875 -26.46875 C 11.929688 -24.207031 11.6875 -21.867188 11.6875 -19.453125 C 11.6875 -16.847656 11.929688 -14.414062 12.421875 -12.15625 C 12.910156 -9.894531 13.648438 -7.925781 14.640625 -6.25 C 15.628906 -4.570312 16.882812 -3.242188 18.40625 -2.265625 C 19.925781 -1.296875 21.71875 -0.8125 23.78125 -0.8125 C 25.769531 -0.8125 27.515625 -1.296875 29.015625 -2.265625 C 30.515625 -3.242188 31.757812 -4.570312 32.75 -6.25 C 33.75 -7.925781 34.5 -9.894531 35 -12.15625 C 35.507812 -14.414062 35.765625 -16.847656 35.765625 -19.453125 C 35.765625 -21.953125 35.507812 -24.335938 35 -26.609375 C 34.5 -28.890625 33.75 -30.882812 32.75 -32.59375 C 31.757812 -34.3125 30.515625 -35.675781 29.015625 -36.6875 C 27.515625 -37.707031 25.769531 -38.21875 23.78125 -38.21875 Z M 23.78125 -38.21875 "/></g></g></g><g fill="#1d5b79" fill-opacity="1"><g transform="translate(208.692106, 68.630853)"><g><path d="M 10.640625 -1.046875 C 11.265625 -1.046875 11.859375 -1.09375 12.421875 -1.1875 C 12.984375 -1.289062 13.476562 -1.476562 13.90625 -1.75 C 14.332031 -2.019531 14.671875 -2.398438 14.921875 -2.890625 C 15.179688 -3.378906 15.3125 -4.03125 15.3125 -4.84375 L 15.3125 -16.65625 L 6.1875 -33.25 C 5.6875 -34.144531 5.238281 -34.882812 4.84375 -35.46875 C 4.457031 -36.050781 4.054688 -36.523438 3.640625 -36.890625 C 3.234375 -37.265625 2.769531 -37.53125 2.25 -37.6875 C 1.726562 -37.84375 1.078125 -37.960938 0.296875 -38.046875 L 0.296875 -39.09375 C 1.265625 -39.09375 2.128906 -39.082031 2.890625 -39.0625 C 3.648438 -39.039062 4.359375 -39.007812 5.015625 -38.96875 C 5.679688 -38.9375 6.328125 -38.910156 6.953125 -38.890625 C 7.578125 -38.867188 8.21875 -38.859375 8.875 -38.859375 C 9.5 -38.859375 10.09375 -38.867188 10.65625 -38.890625 C 11.226562 -38.910156 11.832031 -38.9375 12.46875 -38.96875 C 13.113281 -39.007812 13.816406 -39.039062 14.578125 -39.0625 C 15.335938 -39.082031 16.242188 -39.09375 17.296875 -39.09375 L 17.296875 -38.046875 C 16.941406 -38.046875 16.578125 -38.023438 16.203125 -37.984375 C 15.835938 -37.941406 15.488281 -37.84375 15.15625 -37.6875 C 14.832031 -37.53125 14.570312 -37.316406 14.375 -37.046875 C 14.175781 -36.773438 14.078125 -36.382812 14.078125 -35.875 C 14.078125 -35.375 14.164062 -34.898438 14.34375 -34.453125 C 14.519531 -34.003906 14.765625 -33.488281 15.078125 -32.90625 L 22.328125 -19.109375 L 30.6875 -32.78125 C 30.988281 -33.25 31.226562 -33.71875 31.40625 -34.1875 C 31.582031 -34.65625 31.671875 -35.082031 31.671875 -35.46875 C 31.671875 -36.476562 31.347656 -37.160156 30.703125 -37.515625 C 30.066406 -37.867188 29.238281 -38.046875 28.21875 -38.046875 L 28.21875 -39.09375 C 29.039062 -39.09375 29.734375 -39.082031 30.296875 -39.0625 C 30.859375 -39.039062 31.34375 -39.019531 31.75 -39 C 32.164062 -38.988281 32.539062 -38.972656 32.875 -38.953125 C 33.207031 -38.929688 33.546875 -38.921875 33.890625 -38.921875 C 34.242188 -38.921875 34.554688 -38.929688 34.828125 -38.953125 C 35.097656 -38.972656 35.398438 -38.988281 35.734375 -39 C 36.066406 -39.019531 36.46875 -39.039062 36.9375 -39.0625 C 37.40625 -39.082031 38.023438 -39.09375 38.796875 -39.09375 L 38.796875 -38.046875 C 38.054688 -38.046875 37.421875 -37.9375 36.890625 -37.71875 C 36.367188 -37.507812 35.894531 -37.21875 35.46875 -36.84375 C 35.039062 -36.476562 34.640625 -36.039062 34.265625 -35.53125 C 33.898438 -35.019531 33.539062 -34.453125 33.1875 -33.828125 L 23.609375 -17.9375 L 23.609375 -4.84375 C 23.609375 -4.03125 23.734375 -3.378906 23.984375 -2.890625 C 24.242188 -2.398438 24.585938 -2.019531 25.015625 -1.75 C 25.441406 -1.476562 25.9375 -1.289062 26.5 -1.1875 C 27.0625 -1.09375 27.65625 -1.046875 28.28125 -1.046875 L 28.28125 0 C 27.113281 0 26.140625 -0.0078125 25.359375 -0.03125 C 24.578125 -0.0507812 23.894531 -0.078125 23.3125 -0.109375 C 22.726562 -0.148438 22.171875 -0.179688 21.640625 -0.203125 C 21.117188 -0.222656 20.546875 -0.234375 19.921875 -0.234375 C 19.265625 -0.234375 18.632812 -0.222656 18.03125 -0.203125 C 17.425781 -0.179688 16.769531 -0.148438 16.0625 -0.109375 C 15.363281 -0.078125 14.578125 -0.0507812 13.703125 -0.03125 C 12.828125 -0.0078125 11.804688 0 10.640625 0 Z M 10.640625 -1.046875 "/></g></g></g><g fill="#1d5b79" fill-opacity="1"><g transform="translate(247.77497, 68.630853)"><g><path d="M 18.53125 -21.09375 C 20.28125 -21.09375 21.535156 -21.539062 22.296875 -22.4375 C 23.054688 -23.332031 23.4375 -24.582031 23.4375 -26.1875 L 24.484375 -26.1875 C 24.484375 -25.289062 24.472656 -24.53125 24.453125 -23.90625 C 24.429688 -23.28125 24.410156 -22.742188 24.390625 -22.296875 C 24.378906 -21.847656 24.363281 -21.46875 24.34375 -21.15625 C 24.320312 -20.84375 24.3125 -20.53125 24.3125 -20.21875 C 24.3125 -19.90625 24.320312 -19.601562 24.34375 -19.3125 C 24.363281 -19.019531 24.378906 -18.660156 24.390625 -18.234375 C 24.410156 -17.804688 24.429688 -17.289062 24.453125 -16.6875 C 24.472656 -16.082031 24.484375 -15.332031 24.484375 -14.4375 L 23.4375 -14.4375 C 23.4375 -15.957031 23.054688 -17.164062 22.296875 -18.0625 C 21.535156 -18.957031 20.28125 -19.40625 18.53125 -19.40625 L 15.140625 -19.40625 L 15.140625 -7.65625 C 15.140625 -6.25 15.234375 -5.125 15.421875 -4.28125 C 15.617188 -3.445312 16 -2.828125 16.5625 -2.421875 C 17.132812 -2.015625 17.914062 -1.753906 18.90625 -1.640625 C 19.894531 -1.523438 21.191406 -1.46875 22.796875 -1.46875 C 24.191406 -1.46875 25.484375 -1.550781 26.671875 -1.71875 C 27.859375 -1.894531 28.910156 -2.253906 29.828125 -2.796875 C 30.742188 -3.347656 31.492188 -4.140625 32.078125 -5.171875 C 32.660156 -6.203125 33.03125 -7.578125 33.1875 -9.296875 L 34.296875 -9.296875 L 33.828125 0 C 32.078125 0.0390625 30.476562 0.0664062 29.03125 0.078125 C 27.59375 0.0976562 26.078125 0.109375 24.484375 0.109375 C 21.171875 0.109375 18.40625 0.0625 16.1875 -0.03125 C 13.96875 -0.125 12.234375 -0.171875 10.984375 -0.171875 C 10.359375 -0.171875 9.765625 -0.160156 9.203125 -0.140625 C 8.640625 -0.117188 8.035156 -0.0976562 7.390625 -0.078125 C 6.742188 -0.0664062 6.003906 -0.0507812 5.171875 -0.03125 C 4.335938 -0.0078125 3.332031 0 2.15625 0 L 2.15625 -1.046875 C 2.78125 -1.046875 3.375 -1.09375 3.9375 -1.1875 C 4.507812 -1.289062 5.007812 -1.476562 5.4375 -1.75 C 5.863281 -2.019531 6.203125 -2.398438 6.453125 -2.890625 C 6.710938 -3.378906 6.84375 -4.03125 6.84375 -4.84375 L 6.84375 -34.25 C 6.84375 -35.0625 6.710938 -35.710938 6.453125 -36.203125 C 6.203125 -36.691406 5.863281 -37.070312 5.4375 -37.34375 C 5.007812 -37.613281 4.507812 -37.796875 3.9375 -37.890625 C 3.375 -37.992188 2.78125 -38.046875 2.15625 -38.046875 L 2.15625 -39.09375 C 3.332031 -39.09375 4.328125 -39.082031 5.140625 -39.0625 C 5.960938 -39.039062 6.679688 -39.019531 7.296875 -39 C 7.921875 -38.988281 8.503906 -38.972656 9.046875 -38.953125 C 9.597656 -38.929688 10.1875 -38.921875 10.8125 -38.921875 C 12.132812 -38.921875 13.835938 -38.976562 15.921875 -39.09375 C 18.003906 -39.207031 20.21875 -39.265625 22.5625 -39.265625 C 24.082031 -39.265625 25.492188 -39.242188 26.796875 -39.203125 C 28.097656 -39.171875 29.53125 -39.132812 31.09375 -39.09375 L 31.4375 -30.390625 L 30.390625 -30.390625 C 30.273438 -31.867188 29.972656 -33.082031 29.484375 -34.03125 C 28.992188 -34.988281 28.335938 -35.738281 27.515625 -36.28125 C 26.703125 -36.832031 25.738281 -37.203125 24.625 -37.390625 C 23.519531 -37.585938 22.285156 -37.6875 20.921875 -37.6875 C 20.253906 -37.6875 19.484375 -37.65625 18.609375 -37.59375 C 17.734375 -37.539062 17.023438 -37.476562 16.484375 -37.40625 C 15.585938 -37.28125 15.140625 -36.753906 15.140625 -35.828125 L 15.140625 -21.09375 Z M 18.53125 -21.09375 "/></g></g></g><g fill="#1d5b79" fill-opacity="1"><g transform="translate(283.527906, 68.630853)"><g><path d="M 2.15625 -39.09375 C 3.332031 -39.09375 4.347656 -39.082031 5.203125 -39.0625 C 6.054688 -39.039062 6.820312 -39.03125 7.5 -39.03125 C 8.1875 -39.03125 8.8125 -39.019531 9.375 -39 C 9.945312 -38.988281 10.539062 -38.984375 11.15625 -38.984375 C 12.175781 -38.984375 13.453125 -39.03125 14.984375 -39.125 C 16.523438 -39.21875 18.113281 -39.265625 19.75 -39.265625 C 21.269531 -39.265625 22.882812 -39.144531 24.59375 -38.90625 C 26.3125 -38.675781 27.898438 -38.210938 29.359375 -37.515625 C 30.828125 -36.816406 32.035156 -35.8125 32.984375 -34.5 C 33.941406 -33.195312 34.421875 -31.472656 34.421875 -29.328125 C 34.421875 -27.972656 34.15625 -26.726562 33.625 -25.59375 C 33.101562 -24.46875 32.40625 -23.484375 31.53125 -22.640625 C 30.65625 -21.804688 29.628906 -21.132812 28.453125 -20.625 C 27.285156 -20.125 26.039062 -19.796875 24.71875 -19.640625 C 25.382812 -18.773438 26.210938 -17.703125 27.203125 -16.421875 C 28.191406 -15.140625 29.242188 -13.785156 30.359375 -12.359375 C 31.472656 -10.941406 32.613281 -9.5 33.78125 -8.03125 C 34.945312 -6.570312 36.054688 -5.238281 37.109375 -4.03125 C 38.003906 -3.019531 38.847656 -2.269531 39.640625 -1.78125 C 40.441406 -1.289062 41.332031 -1.046875 42.3125 -1.046875 L 42.3125 0 C 41.445312 0 40.742188 -0.0078125 40.203125 -0.03125 C 39.660156 -0.0507812 39.179688 -0.0664062 38.765625 -0.078125 C 38.359375 -0.0976562 37.988281 -0.117188 37.65625 -0.140625 C 37.332031 -0.160156 36.9375 -0.171875 36.46875 -0.171875 C 35.488281 -0.171875 34.492188 -0.140625 33.484375 -0.078125 C 32.472656 -0.0234375 31.398438 0 30.265625 0 C 29.054688 -1.519531 27.972656 -2.941406 27.015625 -4.265625 C 26.066406 -5.585938 25.132812 -6.878906 24.21875 -8.140625 C 23.300781 -9.410156 22.375 -10.695312 21.4375 -12 C 20.507812 -13.3125 19.460938 -14.707031 18.296875 -16.1875 C 17.710938 -16.925781 17.242188 -17.410156 16.890625 -17.640625 C 16.535156 -17.878906 16.03125 -18 15.375 -18 L 15.140625 -18 L 15.140625 -4.84375 C 15.140625 -4.03125 15.265625 -3.378906 15.515625 -2.890625 C 15.765625 -2.398438 16.101562 -2.019531 16.53125 -1.75 C 16.96875 -1.476562 17.46875 -1.289062 18.03125 -1.1875 C 18.59375 -1.09375 19.1875 -1.046875 19.8125 -1.046875 L 19.8125 0 C 18.644531 0 17.660156 -0.0078125 16.859375 -0.03125 C 16.054688 -0.0507812 15.351562 -0.078125 14.75 -0.109375 C 14.144531 -0.148438 13.570312 -0.179688 13.03125 -0.203125 C 12.488281 -0.222656 11.90625 -0.234375 11.28125 -0.234375 C 10.613281 -0.234375 9.988281 -0.222656 9.40625 -0.203125 C 8.820312 -0.179688 8.1875 -0.148438 7.5 -0.109375 C 6.820312 -0.078125 6.054688 -0.0507812 5.203125 -0.03125 C 4.347656 -0.0078125 3.332031 0 2.15625 0 L 2.15625 -1.046875 C 2.78125 -1.046875 3.375 -1.09375 3.9375 -1.1875 C 4.507812 -1.289062 5.007812 -1.476562 5.4375 -1.75 C 5.863281 -2.019531 6.203125 -2.398438 6.453125 -2.890625 C 6.710938 -3.378906 6.84375 -4.03125 6.84375 -4.84375 L 6.84375 -34.25 C 6.84375 -35.0625 6.710938 -35.710938 6.453125 -36.203125 C 6.203125 -36.691406 5.863281 -37.070312 5.4375 -37.34375 C 5.007812 -37.613281 4.507812 -37.796875 3.9375 -37.890625 C 3.375 -37.992188 2.78125 -38.046875 2.15625 -38.046875 Z M 15.140625 -19.640625 L 17.765625 -19.640625 C 19.242188 -19.640625 20.476562 -19.867188 21.46875 -20.328125 C 22.46875 -20.796875 23.257812 -21.457031 23.84375 -22.3125 C 24.425781 -23.175781 24.84375 -24.210938 25.09375 -25.421875 C 25.351562 -26.628906 25.484375 -27.972656 25.484375 -29.453125 C 25.484375 -30.503906 25.34375 -31.515625 25.0625 -32.484375 C 24.789062 -33.460938 24.375 -34.332031 23.8125 -35.09375 C 23.25 -35.851562 22.53125 -36.46875 21.65625 -36.9375 C 20.78125 -37.40625 19.71875 -37.640625 18.46875 -37.640625 C 18.15625 -37.640625 17.800781 -37.628906 17.40625 -37.609375 C 17.019531 -37.585938 16.660156 -37.5 16.328125 -37.34375 C 16.003906 -37.1875 15.722656 -36.960938 15.484375 -36.671875 C 15.253906 -36.378906 15.140625 -35.976562 15.140625 -35.46875 Z M 15.140625 -19.640625 "/></g></g></g><g fill="#1d5b79" fill-opacity="1"><g transform="translate(325.239667, 68.630853)"><g><path d="M 2.15625 -39.09375 C 3.332031 -39.09375 4.316406 -39.082031 5.109375 -39.0625 C 5.910156 -39.039062 6.613281 -39.007812 7.21875 -38.96875 C 7.820312 -38.9375 8.382812 -38.910156 8.90625 -38.890625 C 9.4375 -38.867188 10.03125 -38.859375 10.6875 -38.859375 C 11.3125 -38.859375 11.925781 -38.867188 12.53125 -38.890625 C 13.132812 -38.910156 13.773438 -38.9375 14.453125 -38.96875 C 15.140625 -39.007812 15.910156 -39.039062 16.765625 -39.0625 C 17.628906 -39.082031 18.644531 -39.09375 19.8125 -39.09375 L 19.8125 -38.046875 C 19.1875 -38.046875 18.59375 -37.992188 18.03125 -37.890625 C 17.46875 -37.796875 16.96875 -37.613281 16.53125 -37.34375 C 16.101562 -37.070312 15.765625 -36.691406 15.515625 -36.203125 C 15.265625 -35.710938 15.140625 -35.0625 15.140625 -34.25 L 15.140625 -4.84375 C 15.140625 -4.03125 15.265625 -3.378906 15.515625 -2.890625 C 15.765625 -2.398438 16.101562 -2.019531 16.53125 -1.75 C 16.96875 -1.476562 17.46875 -1.289062 18.03125 -1.1875 C 18.59375 -1.09375 19.1875 -1.046875 19.8125 -1.046875 L 19.8125 0 C 18.644531 0 17.628906 -0.0078125 16.765625 -0.03125 C 15.910156 -0.0507812 15.140625 -0.078125 14.453125 -0.109375 C 13.773438 -0.148438 13.132812 -0.179688 12.53125 -0.203125 C 11.925781 -0.222656 11.3125 -0.234375 10.6875 -0.234375 C 10.03125 -0.234375 9.4375 -0.222656 8.90625 -0.203125 C 8.382812 -0.179688 7.820312 -0.148438 7.21875 -0.109375 C 6.613281 -0.078125 5.910156 -0.0507812 5.109375 -0.03125 C 4.316406 -0.0078125 3.332031 0 2.15625 0 L 2.15625 -1.046875 C 2.78125 -1.046875 3.375 -1.09375 3.9375 -1.1875 C 4.507812 -1.289062 5.007812 -1.476562 5.4375 -1.75 C 5.863281 -2.019531 6.203125 -2.398438 6.453125 -2.890625 C 6.710938 -3.378906 6.84375 -4.03125 6.84375 -4.84375 L 6.84375 -34.25 C 6.84375 -35.0625 6.710938 -35.710938 6.453125 -36.203125 C 6.203125 -36.691406 5.863281 -37.070312 5.4375 -37.34375 C 5.007812 -37.613281 4.507812 -37.796875 3.9375 -37.890625 C 3.375 -37.992188 2.78125 -38.046875 2.15625 -38.046875 Z M 14.5 -51.359375 C 14.6875 -51.515625 14.859375 -51.671875 15.015625 -51.828125 C 15.171875 -51.984375 15.425781 -52.125 15.78125 -52.25 C 16.132812 -52.363281 16.523438 -52.421875 16.953125 -52.421875 C 17.492188 -52.421875 17.921875 -52.207031 18.234375 -51.78125 C 18.546875 -51.351562 18.703125 -50.863281 18.703125 -50.3125 C 18.703125 -49.84375 18.59375 -49.453125 18.375 -49.140625 C 18.164062 -48.828125 17.90625 -48.554688 17.59375 -48.328125 C 17.28125 -48.097656 16.914062 -47.882812 16.5 -47.6875 C 16.09375 -47.488281 15.695312 -47.289062 15.3125 -47.09375 L 5.734375 -42.375 L 4.796875 -42.375 Z M 14.5 -51.359375 "/></g></g></g><g fill="#1d5b79" fill-opacity="1"><g transform="translate(347.205514, 68.630853)"><g><path d="M 22.265625 -15.375 L 11.21875 -15.375 L 7.59375 -5.5 C 7.476562 -5.144531 7.378906 -4.800781 7.296875 -4.46875 C 7.222656 -4.132812 7.1875 -3.832031 7.1875 -3.5625 C 7.1875 -3.019531 7.289062 -2.582031 7.5 -2.25 C 7.71875 -1.914062 8 -1.660156 8.34375 -1.484375 C 8.695312 -1.316406 9.085938 -1.203125 9.515625 -1.140625 C 9.953125 -1.078125 10.382812 -1.046875 10.8125 -1.046875 L 10.8125 0 C 9.988281 0 9.296875 -0.0078125 8.734375 -0.03125 C 8.171875 -0.0507812 7.675781 -0.0664062 7.25 -0.078125 C 6.820312 -0.0976562 6.429688 -0.117188 6.078125 -0.140625 C 5.722656 -0.160156 5.351562 -0.171875 4.96875 -0.171875 C 4.539062 -0.171875 4.179688 -0.160156 3.890625 -0.140625 C 3.597656 -0.117188 3.273438 -0.0976562 2.921875 -0.078125 C 2.566406 -0.0664062 2.132812 -0.0507812 1.625 -0.03125 C 1.125 -0.0078125 0.484375 0 -0.296875 0 L -0.296875 -1.046875 C 2.628906 -1.046875 4.640625 -2.507812 5.734375 -5.4375 L 18.640625 -39.859375 L 20.6875 -39.859375 L 34.359375 -5.5 C 35.023438 -3.78125 35.773438 -2.609375 36.609375 -1.984375 C 37.453125 -1.359375 38.570312 -1.046875 39.96875 -1.046875 L 39.96875 0 C 38.800781 0 37.796875 -0.0078125 36.953125 -0.03125 C 36.117188 -0.0507812 35.367188 -0.0664062 34.703125 -0.078125 C 34.046875 -0.0976562 33.4375 -0.117188 32.875 -0.140625 C 32.3125 -0.160156 31.734375 -0.171875 31.140625 -0.171875 C 30.554688 -0.171875 30.019531 -0.160156 29.53125 -0.140625 C 29.050781 -0.117188 28.5 -0.0976562 27.875 -0.078125 C 27.25 -0.0664062 26.523438 -0.0507812 25.703125 -0.03125 C 24.890625 -0.0078125 23.859375 0 22.609375 0 L 22.609375 -1.046875 C 23.078125 -1.046875 23.535156 -1.078125 23.984375 -1.140625 C 24.429688 -1.203125 24.832031 -1.316406 25.1875 -1.484375 C 25.539062 -1.660156 25.832031 -1.90625 26.0625 -2.21875 C 26.289062 -2.53125 26.40625 -2.941406 26.40625 -3.453125 C 26.40625 -3.878906 26.347656 -4.296875 26.234375 -4.703125 C 26.117188 -5.109375 25.984375 -5.507812 25.828125 -5.90625 Z M 11.859375 -17 L 21.6875 -17 L 16.71875 -30.09375 Z M 11.859375 -17 "/></g></g></g></svg>