<svg xmlns="http://www.w3.org/2000/svg" xmlns:xlink="http://www.w3.org/1999/xlink" width="400" zoomAndPan="magnify" viewBox="0 0 300 101.249998" height="135" preserveAspectRatio="xMidYMid meet" version="1.0"><defs><g/><clipPath id="9f2b86a399"><path d="M 1.101562 0 L 298.894531 0 L 298.894531 100.503906 L 1.101562 100.503906 Z M 1.101562 0 " clip-rule="nonzero"/></clipPath></defs><g clip-path="url(#9f2b86a399)"><path fill="#ffffff" d="M 1.101562 0 L 298.898438 0 L 298.898438 107.949219 L 1.101562 107.949219 Z M 1.101562 0 " fill-opacity="1" fill-rule="nonzero"/><path fill="#ffffff" d="M 1.101562 0 L 298.898438 0 L 298.898438 100.503906 L 1.101562 100.503906 Z M 1.101562 0 " fill-opacity="1" fill-rule="nonzero"/><path fill="#ffffff" d="M 1.101562 0 L 298.898438 0 L 298.898438 100.503906 L 1.101562 100.503906 Z M 1.101562 0 " fill-opacity="1" fill-rule="nonzero"/></g><g fill="#1d5b79" fill-opacity="1"><g transform="translate(17.749169, 68.120401)"><g><path d="M 2.796875 -41.671875 C 4.046875 -41.671875 5.101562 -41.660156 5.96875 -41.640625 C 6.84375 -41.617188 7.632812 -41.585938 8.34375 -41.546875 C 9.050781 -41.503906 9.695312 -41.472656 10.28125 -41.453125 C 10.863281 -41.429688 11.503906 -41.421875 12.203125 -41.421875 C 12.867188 -41.421875 13.503906 -41.429688 14.109375 -41.453125 C 14.710938 -41.472656 15.363281 -41.503906 16.0625 -41.546875 C 16.769531 -41.585938 17.5625 -41.617188 18.4375 -41.640625 C 19.3125 -41.660156 20.367188 -41.671875 21.609375 -41.671875 L 21.609375 -40.5625 C 20.953125 -40.5625 20.320312 -40.507812 19.71875 -40.40625 C 19.113281 -40.300781 18.582031 -40.101562 18.125 -39.8125 C 17.664062 -39.519531 17.300781 -39.113281 17.03125 -38.59375 C 16.769531 -38.070312 16.640625 -37.375 16.640625 -36.5 L 16.640625 -0.1875 C 16.640625 2.132812 16.410156 4.3125 15.953125 6.34375 C 15.492188 8.382812 14.691406 10.160156 13.546875 11.671875 C 12.410156 13.191406 10.882812 14.398438 8.96875 15.296875 C 7.0625 16.191406 4.675781 16.640625 1.8125 16.640625 C 1.0625 16.640625 0.109375 16.585938 -1.046875 16.484375 C -2.210938 16.378906 -3.335938 16.148438 -4.421875 15.796875 C -5.503906 15.441406 -6.4375 14.910156 -7.21875 14.203125 C -8.007812 13.492188 -8.40625 12.539062 -8.40625 11.34375 C -8.40625 10.382812 -8.082031 9.675781 -7.4375 9.21875 C -6.800781 8.757812 -6.171875 8.53125 -5.546875 8.53125 C -4.628906 8.53125 -3.929688 8.78125 -3.453125 9.28125 C -2.972656 9.78125 -2.617188 10.332031 -2.390625 10.9375 C -2.171875 11.539062 -2.03125 12.097656 -1.96875 12.609375 C -1.90625 13.128906 -1.875 13.410156 -1.875 13.453125 C -1.539062 14.160156 -1.050781 14.597656 -0.40625 14.765625 C 0.238281 14.929688 0.957031 15.015625 1.75 15.015625 C 2.695312 15.015625 3.546875 14.796875 4.296875 14.359375 C 5.046875 13.921875 5.679688 13.191406 6.203125 12.171875 C 6.722656 11.160156 7.113281 9.8125 7.375 8.125 C 7.644531 6.445312 7.78125 4.363281 7.78125 1.875 L 7.78125 -36.5 C 7.78125 -37.375 7.644531 -38.070312 7.375 -38.59375 C 7.113281 -39.113281 6.753906 -39.519531 6.296875 -39.8125 C 5.835938 -40.101562 5.304688 -40.300781 4.703125 -40.40625 C 4.097656 -40.507812 3.460938 -40.5625 2.796875 -40.5625 Z M 2.796875 -41.671875 "/></g></g></g><g fill="#1d5b79" fill-opacity="1"><g transform="translate(41.669461, 68.120401)"><g><path d="M 25.359375 -42.421875 C 28.347656 -42.421875 31.191406 -41.910156 33.890625 -40.890625 C 36.585938 -39.878906 38.960938 -38.425781 41.015625 -36.53125 C 43.078125 -34.644531 44.71875 -32.363281 45.9375 -29.6875 C 47.164062 -27.007812 47.78125 -24.03125 47.78125 -20.75 C 47.78125 -17.382812 47.164062 -14.367188 45.9375 -11.703125 C 44.71875 -9.046875 43.078125 -6.785156 41.015625 -4.921875 C 38.960938 -3.054688 36.585938 -1.625 33.890625 -0.625 C 31.191406 0.375 28.347656 0.875 25.359375 0.875 C 22.160156 0.875 19.1875 0.363281 16.4375 -0.65625 C 13.695312 -1.675781 11.320312 -3.128906 9.3125 -5.015625 C 7.300781 -6.898438 5.710938 -9.179688 4.546875 -11.859375 C 3.378906 -14.546875 2.796875 -17.550781 2.796875 -20.875 C 2.796875 -24.03125 3.367188 -26.925781 4.515625 -29.5625 C 5.660156 -32.195312 7.238281 -34.46875 9.25 -36.375 C 11.257812 -38.289062 13.644531 -39.773438 16.40625 -40.828125 C 19.175781 -41.890625 22.160156 -42.421875 25.359375 -42.421875 Z M 25.359375 -40.734375 C 23.148438 -40.734375 21.234375 -40.171875 19.609375 -39.046875 C 17.992188 -37.929688 16.65625 -36.445312 15.59375 -34.59375 C 14.539062 -32.75 13.753906 -30.625 13.234375 -28.21875 C 12.710938 -25.8125 12.453125 -23.320312 12.453125 -20.75 C 12.453125 -17.96875 12.710938 -15.367188 13.234375 -12.953125 C 13.753906 -10.546875 14.539062 -8.445312 15.59375 -6.65625 C 16.65625 -4.875 17.992188 -3.460938 19.609375 -2.421875 C 21.234375 -1.390625 23.148438 -0.875 25.359375 -0.875 C 27.472656 -0.875 29.328125 -1.390625 30.921875 -2.421875 C 32.523438 -3.460938 33.851562 -4.875 34.90625 -6.65625 C 35.96875 -8.445312 36.769531 -10.546875 37.3125 -12.953125 C 37.851562 -15.367188 38.125 -17.96875 38.125 -20.75 C 38.125 -23.40625 37.851562 -25.945312 37.3125 -28.375 C 36.769531 -30.800781 35.96875 -32.925781 34.90625 -34.75 C 33.851562 -36.582031 32.523438 -38.035156 30.921875 -39.109375 C 29.328125 -40.191406 27.472656 -40.734375 25.359375 -40.734375 Z M 25.359375 -40.734375 "/></g></g></g><g fill="#1d5b79" fill-opacity="1"><g transform="translate(92.250915, 68.120401)"><g><path d="M 11.34375 -1.125 C 12 -1.125 12.628906 -1.175781 13.234375 -1.28125 C 13.835938 -1.382812 14.367188 -1.582031 14.828125 -1.875 C 15.285156 -2.164062 15.648438 -2.566406 15.921875 -3.078125 C 16.191406 -3.597656 16.328125 -4.296875 16.328125 -5.171875 L 16.328125 -17.75 L 6.609375 -35.453125 C 6.066406 -36.398438 5.585938 -37.1875 5.171875 -37.8125 C 4.753906 -38.4375 4.328125 -38.945312 3.890625 -39.34375 C 3.453125 -39.738281 2.953125 -40.019531 2.390625 -40.1875 C 1.835938 -40.351562 1.144531 -40.476562 0.3125 -40.5625 L 0.3125 -41.671875 C 1.351562 -41.671875 2.273438 -41.660156 3.078125 -41.640625 C 3.890625 -41.617188 4.648438 -41.585938 5.359375 -41.546875 C 6.066406 -41.503906 6.75 -41.472656 7.40625 -41.453125 C 8.070312 -41.429688 8.757812 -41.421875 9.46875 -41.421875 C 10.132812 -41.421875 10.765625 -41.429688 11.359375 -41.453125 C 11.960938 -41.472656 12.609375 -41.503906 13.296875 -41.546875 C 13.984375 -41.585938 14.734375 -41.617188 15.546875 -41.640625 C 16.359375 -41.660156 17.320312 -41.671875 18.4375 -41.671875 L 18.4375 -40.5625 C 18.0625 -40.5625 17.675781 -40.539062 17.28125 -40.5 C 16.894531 -40.457031 16.523438 -40.351562 16.171875 -40.1875 C 15.816406 -40.019531 15.535156 -39.789062 15.328125 -39.5 C 15.117188 -39.207031 15.015625 -38.789062 15.015625 -38.25 C 15.015625 -37.707031 15.109375 -37.195312 15.296875 -36.71875 C 15.484375 -36.238281 15.742188 -35.691406 16.078125 -35.078125 L 23.796875 -20.375 L 32.703125 -34.953125 C 33.035156 -35.453125 33.296875 -35.945312 33.484375 -36.4375 C 33.671875 -36.9375 33.765625 -37.394531 33.765625 -37.8125 C 33.765625 -38.894531 33.421875 -39.625 32.734375 -40 C 32.046875 -40.375 31.164062 -40.5625 30.09375 -40.5625 L 30.09375 -41.671875 C 30.957031 -41.671875 31.691406 -41.660156 32.296875 -41.640625 C 32.898438 -41.617188 33.421875 -41.597656 33.859375 -41.578125 C 34.296875 -41.554688 34.691406 -41.535156 35.046875 -41.515625 C 35.398438 -41.492188 35.757812 -41.484375 36.125 -41.484375 C 36.5 -41.484375 36.832031 -41.492188 37.125 -41.515625 C 37.414062 -41.535156 37.738281 -41.554688 38.09375 -41.578125 C 38.445312 -41.597656 38.875 -41.617188 39.375 -41.640625 C 39.875 -41.660156 40.535156 -41.671875 41.359375 -41.671875 L 41.359375 -40.5625 C 40.578125 -40.5625 39.90625 -40.445312 39.34375 -40.21875 C 38.78125 -39.988281 38.269531 -39.675781 37.8125 -39.28125 C 37.351562 -38.882812 36.925781 -38.414062 36.53125 -37.875 C 36.132812 -37.332031 35.753906 -36.726562 35.390625 -36.0625 L 25.171875 -19.125 L 25.171875 -5.171875 C 25.171875 -4.296875 25.304688 -3.597656 25.578125 -3.078125 C 25.847656 -2.566406 26.207031 -2.164062 26.65625 -1.875 C 27.113281 -1.582031 27.644531 -1.382812 28.25 -1.28125 C 28.851562 -1.175781 29.488281 -1.125 30.15625 -1.125 L 30.15625 0 C 28.90625 0 27.863281 -0.0078125 27.03125 -0.03125 C 26.207031 -0.0507812 25.484375 -0.0820312 24.859375 -0.125 C 24.234375 -0.164062 23.640625 -0.195312 23.078125 -0.21875 C 22.515625 -0.238281 21.90625 -0.25 21.25 -0.25 C 20.539062 -0.25 19.863281 -0.238281 19.21875 -0.21875 C 18.570312 -0.195312 17.875 -0.164062 17.125 -0.125 C 16.382812 -0.0820312 15.546875 -0.0507812 14.609375 -0.03125 C 13.671875 -0.0078125 12.582031 0 11.34375 0 Z M 11.34375 -1.125 "/></g></g></g><g fill="#1d5b79" fill-opacity="1"><g transform="translate(133.924549, 68.120401)"><g><path d="M 19.75 -22.484375 C 21.613281 -22.484375 22.953125 -22.960938 23.765625 -23.921875 C 24.578125 -24.878906 24.984375 -26.207031 24.984375 -27.90625 L 26.109375 -27.90625 C 26.109375 -26.945312 26.097656 -26.132812 26.078125 -25.46875 C 26.054688 -24.8125 26.035156 -24.242188 26.015625 -23.765625 C 25.992188 -23.285156 25.972656 -22.878906 25.953125 -22.546875 C 25.929688 -22.210938 25.921875 -21.882812 25.921875 -21.5625 C 25.921875 -21.226562 25.929688 -20.90625 25.953125 -20.59375 C 25.972656 -20.28125 25.992188 -19.894531 26.015625 -19.4375 C 26.035156 -18.976562 26.054688 -18.425781 26.078125 -17.78125 C 26.097656 -17.132812 26.109375 -16.335938 26.109375 -15.390625 L 24.984375 -15.390625 C 24.984375 -17.003906 24.578125 -18.289062 23.765625 -19.25 C 22.953125 -20.207031 21.613281 -20.6875 19.75 -20.6875 L 16.140625 -20.6875 L 16.140625 -8.15625 C 16.140625 -6.664062 16.242188 -5.472656 16.453125 -4.578125 C 16.660156 -3.679688 17.0625 -3.015625 17.65625 -2.578125 C 18.257812 -2.148438 19.085938 -1.875 20.140625 -1.75 C 21.203125 -1.625 22.585938 -1.5625 24.296875 -1.5625 C 25.785156 -1.5625 27.164062 -1.65625 28.4375 -1.84375 C 29.707031 -2.03125 30.828125 -2.410156 31.796875 -2.984375 C 32.773438 -3.566406 33.578125 -4.410156 34.203125 -5.515625 C 34.828125 -6.617188 35.222656 -8.082031 35.390625 -9.90625 L 36.5625 -9.90625 L 36.0625 0 C 34.195312 0.0390625 32.492188 0.0703125 30.953125 0.09375 C 29.421875 0.113281 27.804688 0.125 26.109375 0.125 C 22.578125 0.125 19.625 0.0703125 17.25 -0.03125 C 14.882812 -0.132812 13.039062 -0.1875 11.71875 -0.1875 C 11.050781 -0.1875 10.414062 -0.175781 9.8125 -0.15625 C 9.207031 -0.132812 8.5625 -0.113281 7.875 -0.09375 C 7.195312 -0.0703125 6.410156 -0.0507812 5.515625 -0.03125 C 4.617188 -0.0078125 3.550781 0 2.3125 0 L 2.3125 -1.125 C 2.96875 -1.125 3.597656 -1.175781 4.203125 -1.28125 C 4.804688 -1.382812 5.335938 -1.582031 5.796875 -1.875 C 6.253906 -2.164062 6.613281 -2.566406 6.875 -3.078125 C 7.144531 -3.597656 7.28125 -4.296875 7.28125 -5.171875 L 7.28125 -36.5 C 7.28125 -37.375 7.144531 -38.070312 6.875 -38.59375 C 6.613281 -39.113281 6.253906 -39.519531 5.796875 -39.8125 C 5.335938 -40.101562 4.804688 -40.300781 4.203125 -40.40625 C 3.597656 -40.507812 2.96875 -40.5625 2.3125 -40.5625 L 2.3125 -41.671875 C 3.550781 -41.671875 4.609375 -41.660156 5.484375 -41.640625 C 6.359375 -41.617188 7.125 -41.597656 7.78125 -41.578125 C 8.445312 -41.554688 9.070312 -41.535156 9.65625 -41.515625 C 10.238281 -41.492188 10.863281 -41.484375 11.53125 -41.484375 C 12.9375 -41.484375 14.75 -41.546875 16.96875 -41.671875 C 19.195312 -41.796875 21.554688 -41.859375 24.046875 -41.859375 C 25.660156 -41.859375 27.164062 -41.835938 28.5625 -41.796875 C 29.957031 -41.753906 31.484375 -41.710938 33.140625 -41.671875 L 33.515625 -32.390625 L 32.390625 -32.390625 C 32.265625 -33.972656 31.941406 -35.269531 31.421875 -36.28125 C 30.910156 -37.300781 30.21875 -38.101562 29.34375 -38.6875 C 28.46875 -39.269531 27.4375 -39.664062 26.25 -39.875 C 25.070312 -40.082031 23.753906 -40.1875 22.296875 -40.1875 C 21.597656 -40.1875 20.78125 -40.15625 19.84375 -40.09375 C 18.90625 -40.03125 18.144531 -39.957031 17.5625 -39.875 C 16.613281 -39.75 16.140625 -39.1875 16.140625 -38.1875 L 16.140625 -22.484375 Z M 19.75 -22.484375 "/></g></g></g><g fill="#1d5b79" fill-opacity="1"><g transform="translate(172.047519, 68.120401)"><g><path d="M 2.3125 -41.671875 C 3.550781 -41.671875 4.628906 -41.660156 5.546875 -41.640625 C 6.460938 -41.617188 7.28125 -41.609375 8 -41.609375 C 8.726562 -41.609375 9.394531 -41.597656 10 -41.578125 C 10.601562 -41.554688 11.238281 -41.546875 11.90625 -41.546875 C 12.976562 -41.546875 14.332031 -41.597656 15.96875 -41.703125 C 17.613281 -41.804688 19.3125 -41.859375 21.0625 -41.859375 C 22.675781 -41.859375 24.394531 -41.734375 26.21875 -41.484375 C 28.050781 -41.234375 29.742188 -40.734375 31.296875 -39.984375 C 32.859375 -39.242188 34.144531 -38.175781 35.15625 -36.78125 C 36.175781 -35.394531 36.6875 -33.554688 36.6875 -31.265625 C 36.6875 -29.816406 36.40625 -28.488281 35.84375 -27.28125 C 35.289062 -26.082031 34.546875 -25.035156 33.609375 -24.140625 C 32.671875 -23.242188 31.578125 -22.523438 30.328125 -21.984375 C 29.085938 -21.453125 27.765625 -21.101562 26.359375 -20.9375 C 27.054688 -20.019531 27.9375 -18.875 29 -17.5 C 30.0625 -16.132812 31.179688 -14.691406 32.359375 -13.171875 C 33.546875 -11.660156 34.757812 -10.125 36 -8.5625 C 37.25 -7.007812 38.4375 -5.585938 39.5625 -4.296875 C 40.507812 -3.210938 41.410156 -2.410156 42.265625 -1.890625 C 43.117188 -1.378906 44.066406 -1.125 45.109375 -1.125 L 45.109375 0 C 44.191406 0 43.441406 -0.0078125 42.859375 -0.03125 C 42.273438 -0.0507812 41.765625 -0.0703125 41.328125 -0.09375 C 40.898438 -0.113281 40.507812 -0.132812 40.15625 -0.15625 C 39.800781 -0.175781 39.375 -0.1875 38.875 -0.1875 C 37.832031 -0.1875 36.769531 -0.15625 35.6875 -0.09375 C 34.613281 -0.03125 33.472656 0 32.265625 0 C 30.984375 -1.613281 29.832031 -3.128906 28.8125 -4.546875 C 27.789062 -5.960938 26.789062 -7.34375 25.8125 -8.6875 C 24.84375 -10.039062 23.859375 -11.410156 22.859375 -12.796875 C 21.867188 -14.191406 20.75 -15.675781 19.5 -17.25 C 18.875 -18.039062 18.375 -18.5625 18 -18.8125 C 17.625 -19.0625 17.085938 -19.1875 16.390625 -19.1875 L 16.140625 -19.1875 L 16.140625 -5.171875 C 16.140625 -4.296875 16.269531 -3.597656 16.53125 -3.078125 C 16.800781 -2.566406 17.164062 -2.164062 17.625 -1.875 C 18.082031 -1.582031 18.613281 -1.382812 19.21875 -1.28125 C 19.820312 -1.175781 20.457031 -1.125 21.125 -1.125 L 21.125 0 C 19.875 0 18.820312 -0.0078125 17.96875 -0.03125 C 17.125 -0.0507812 16.378906 -0.0820312 15.734375 -0.125 C 15.085938 -0.164062 14.472656 -0.195312 13.890625 -0.21875 C 13.304688 -0.238281 12.679688 -0.25 12.015625 -0.25 C 11.316406 -0.25 10.65625 -0.238281 10.03125 -0.21875 C 9.40625 -0.195312 8.726562 -0.164062 8 -0.125 C 7.28125 -0.0820312 6.460938 -0.0507812 5.546875 -0.03125 C 4.628906 -0.0078125 3.550781 0 2.3125 0 L 2.3125 -1.125 C 2.96875 -1.125 3.597656 -1.175781 4.203125 -1.28125 C 4.804688 -1.382812 5.335938 -1.582031 5.796875 -1.875 C 6.253906 -2.164062 6.613281 -2.566406 6.875 -3.078125 C 7.144531 -3.597656 7.28125 -4.296875 7.28125 -5.171875 L 7.28125 -36.5 C 7.28125 -37.375 7.144531 -38.070312 6.875 -38.59375 C 6.613281 -39.113281 6.253906 -39.519531 5.796875 -39.8125 C 5.335938 -40.101562 4.804688 -40.300781 4.203125 -40.40625 C 3.597656 -40.507812 2.96875 -40.5625 2.3125 -40.5625 Z M 16.140625 -20.9375 L 18.9375 -20.9375 C 20.519531 -20.9375 21.835938 -21.179688 22.890625 -21.671875 C 23.953125 -22.171875 24.796875 -22.878906 25.421875 -23.796875 C 26.046875 -24.710938 26.488281 -25.8125 26.75 -27.09375 C 27.019531 -28.382812 27.15625 -29.816406 27.15625 -31.390625 C 27.15625 -32.515625 27.007812 -33.59375 26.71875 -34.625 C 26.4375 -35.664062 25.992188 -36.59375 25.390625 -37.40625 C 24.785156 -38.21875 24.015625 -38.875 23.078125 -39.375 C 22.140625 -39.875 21.007812 -40.125 19.6875 -40.125 C 19.351562 -40.125 18.976562 -40.113281 18.5625 -40.09375 C 18.144531 -40.070312 17.757812 -39.976562 17.40625 -39.8125 C 17.050781 -39.644531 16.75 -39.40625 16.5 -39.09375 C 16.257812 -38.78125 16.140625 -38.351562 16.140625 -37.8125 Z M 16.140625 -20.9375 "/></g></g></g><g fill="#1d5b79" fill-opacity="1"><g transform="translate(216.524321, 68.120401)"><g><path d="M 2.3125 -41.671875 C 3.550781 -41.671875 4.597656 -41.660156 5.453125 -41.640625 C 6.304688 -41.617188 7.050781 -41.585938 7.6875 -41.546875 C 8.332031 -41.503906 8.9375 -41.472656 9.5 -41.453125 C 10.0625 -41.429688 10.695312 -41.421875 11.40625 -41.421875 C 12.0625 -41.421875 12.710938 -41.429688 13.359375 -41.453125 C 14.003906 -41.472656 14.691406 -41.503906 15.421875 -41.546875 C 16.148438 -41.585938 16.96875 -41.617188 17.875 -41.640625 C 18.789062 -41.660156 19.875 -41.671875 21.125 -41.671875 L 21.125 -40.5625 C 20.457031 -40.5625 19.820312 -40.507812 19.21875 -40.40625 C 18.613281 -40.300781 18.082031 -40.101562 17.625 -39.8125 C 17.164062 -39.519531 16.800781 -39.113281 16.53125 -38.59375 C 16.269531 -38.070312 16.140625 -37.375 16.140625 -36.5 L 16.140625 -5.171875 C 16.140625 -4.296875 16.269531 -3.597656 16.53125 -3.078125 C 16.800781 -2.566406 17.164062 -2.164062 17.625 -1.875 C 18.082031 -1.582031 18.613281 -1.382812 19.21875 -1.28125 C 19.820312 -1.175781 20.457031 -1.125 21.125 -1.125 L 21.125 0 C 19.875 0 18.789062 -0.0078125 17.875 -0.03125 C 16.96875 -0.0507812 16.148438 -0.0820312 15.421875 -0.125 C 14.691406 -0.164062 14.003906 -0.195312 13.359375 -0.21875 C 12.710938 -0.238281 12.0625 -0.25 11.40625 -0.25 C 10.695312 -0.25 10.0625 -0.238281 9.5 -0.21875 C 8.9375 -0.195312 8.332031 -0.164062 7.6875 -0.125 C 7.050781 -0.0820312 6.304688 -0.0507812 5.453125 -0.03125 C 4.597656 -0.0078125 3.550781 0 2.3125 0 L 2.3125 -1.125 C 2.96875 -1.125 3.597656 -1.175781 4.203125 -1.28125 C 4.804688 -1.382812 5.335938 -1.582031 5.796875 -1.875 C 6.253906 -2.164062 6.613281 -2.566406 6.875 -3.078125 C 7.144531 -3.597656 7.28125 -4.296875 7.28125 -5.171875 L 7.28125 -36.5 C 7.28125 -37.375 7.144531 -38.070312 6.875 -38.59375 C 6.613281 -39.113281 6.253906 -39.519531 5.796875 -39.8125 C 5.335938 -40.101562 4.804688 -40.300781 4.203125 -40.40625 C 3.597656 -40.507812 2.96875 -40.5625 2.3125 -40.5625 Z M 15.4375 -54.765625 C 15.644531 -54.929688 15.832031 -55.09375 16 -55.25 C 16.164062 -55.414062 16.4375 -55.5625 16.8125 -55.6875 C 17.1875 -55.8125 17.601562 -55.875 18.0625 -55.875 C 18.644531 -55.875 19.097656 -55.644531 19.421875 -55.1875 C 19.753906 -54.738281 19.921875 -54.222656 19.921875 -53.640625 C 19.921875 -53.140625 19.804688 -52.722656 19.578125 -52.390625 C 19.347656 -52.054688 19.066406 -51.765625 18.734375 -51.515625 C 18.410156 -51.265625 18.03125 -51.035156 17.59375 -50.828125 C 17.15625 -50.617188 16.726562 -50.414062 16.3125 -50.21875 L 6.09375 -45.171875 L 5.09375 -45.171875 Z M 15.4375 -54.765625 "/></g></g></g><g fill="#1d5b79" fill-opacity="1"><g transform="translate(239.946275, 68.120401)"><g><path d="M 23.734375 -16.390625 L 11.96875 -16.390625 L 8.09375 -5.859375 C 7.96875 -5.484375 7.863281 -5.117188 7.78125 -4.765625 C 7.695312 -4.410156 7.65625 -4.085938 7.65625 -3.796875 C 7.65625 -3.210938 7.769531 -2.742188 8 -2.390625 C 8.226562 -2.046875 8.53125 -1.78125 8.90625 -1.59375 C 9.28125 -1.40625 9.695312 -1.28125 10.15625 -1.21875 C 10.613281 -1.15625 11.070312 -1.125 11.53125 -1.125 L 11.53125 0 C 10.65625 0 9.914062 -0.0078125 9.3125 -0.03125 C 8.707031 -0.0507812 8.175781 -0.0703125 7.71875 -0.09375 C 7.269531 -0.113281 6.859375 -0.132812 6.484375 -0.15625 C 6.109375 -0.175781 5.710938 -0.1875 5.296875 -0.1875 C 4.835938 -0.1875 4.453125 -0.175781 4.140625 -0.15625 C 3.828125 -0.132812 3.484375 -0.113281 3.109375 -0.09375 C 2.734375 -0.0703125 2.273438 -0.0507812 1.734375 -0.03125 C 1.203125 -0.0078125 0.519531 0 -0.3125 0 L -0.3125 -1.125 C 2.800781 -1.125 4.941406 -2.679688 6.109375 -5.796875 L 19.875 -42.484375 L 22.046875 -42.484375 L 36.625 -5.859375 C 37.332031 -4.023438 38.132812 -2.773438 39.03125 -2.109375 C 39.925781 -1.453125 41.117188 -1.125 42.609375 -1.125 L 42.609375 0 C 41.359375 0 40.285156 -0.0078125 39.390625 -0.03125 C 38.503906 -0.0507812 37.707031 -0.0703125 37 -0.09375 C 36.289062 -0.113281 35.632812 -0.132812 35.03125 -0.15625 C 34.4375 -0.175781 33.828125 -0.1875 33.203125 -0.1875 C 32.578125 -0.1875 32.003906 -0.175781 31.484375 -0.15625 C 30.972656 -0.132812 30.382812 -0.113281 29.71875 -0.09375 C 29.050781 -0.0703125 28.28125 -0.0507812 27.40625 -0.03125 C 26.539062 -0.0078125 25.441406 0 24.109375 0 L 24.109375 -1.125 C 24.609375 -1.125 25.097656 -1.15625 25.578125 -1.21875 C 26.054688 -1.28125 26.476562 -1.40625 26.84375 -1.59375 C 27.21875 -1.78125 27.53125 -2.035156 27.78125 -2.359375 C 28.03125 -2.691406 28.15625 -3.128906 28.15625 -3.671875 C 28.15625 -4.128906 28.09375 -4.578125 27.96875 -5.015625 C 27.84375 -5.453125 27.695312 -5.878906 27.53125 -6.296875 Z M 12.640625 -18.125 L 23.109375 -18.125 L 17.8125 -32.078125 Z M 12.640625 -18.125 "/></g></g></g></svg>